<svg width="24" height="36" viewBox="0 0 24 36" fill="none" xmlns="http://www.w3.org/2000/svg">
    <path
        d="M10.3561 21.39C8.72784 21.39 7.1 20.77 5.86052 19.5305C3.38194 17.052 3.38194 13.0184 5.86052 10.5398C8.33949 8.06126 12.373 8.06087 14.8516 10.5398C17.3306 13.0184 17.3306 17.052 14.8516 19.5305C13.6121 20.77 11.9839 21.39 10.3561 21.39ZM10.3557 9.46814C8.92949 9.46814 7.50292 10.0109 6.41705 11.0968C4.24529 13.2685 4.24529 16.8019 6.41705 18.9736C8.5888 21.1454 12.1225 21.1454 14.2943 18.9736C16.466 16.8019 16.466 13.2685 14.2943 11.0968C13.2084 10.0113 11.7822 9.46814 10.3557 9.46814Z"
        fill="#331B3B" />
    <path
        d="M23.2719 25.8646L18.0371 20.6294C17.5589 20.1513 16.8334 20.0764 16.2706 20.3935L15.1154 19.2383C17.3195 16.7444 17.236 12.9247 14.8511 10.5402C12.3729 8.06126 8.339 8.06166 5.86003 10.5402C3.38145 13.0188 3.38145 17.0524 5.86003 19.5309C7.09952 20.77 8.72735 21.3904 10.3556 21.3904C11.8601 21.3904 13.3607 20.8539 14.5585 19.7956L15.7137 20.9508C15.3966 21.5136 15.4711 22.2387 15.9496 22.7173L21.1848 27.9521C21.4625 28.2302 21.8331 28.3834 22.2282 28.3834C22.6232 28.3834 22.9938 28.2302 23.2715 27.9521C23.5496 27.674 23.7028 27.3034 23.7028 26.9084C23.7028 26.5133 23.55 26.1423 23.2719 25.8646ZM6.41735 18.974C4.24559 16.8023 4.24559 13.2689 6.41735 11.0972C7.50323 10.0113 8.9294 9.46853 10.356 9.46853C11.7825 9.46853 13.2087 10.0113 14.2946 11.0972C16.4664 13.2689 16.4664 16.8023 14.2946 18.974C12.1228 21.1458 8.58871 21.1454 6.41735 18.974ZM22.715 27.3952C22.4566 27.6536 22.0005 27.6536 21.7418 27.3952L16.5065 22.16C16.2383 21.8913 16.2383 21.455 16.5065 21.1863C16.6408 21.0524 16.8169 20.9851 16.9933 20.9851C17.1694 20.9851 17.3458 21.052 17.4798 21.1863L22.7146 26.4216C22.8438 26.5507 22.9151 26.7236 22.9151 26.908C22.9151 27.0923 22.8442 27.2656 22.715 27.3952Z"
        fill="#331B3B" />
    <path
        d="M6.23423 17.2985C6.11489 17.2985 5.99712 17.2445 5.91992 17.1425C5.78877 16.9692 5.82264 16.7219 5.99633 16.5907L11.6802 12.289C11.7692 12.222 11.8818 12.1952 11.9913 12.2161C12.1004 12.237 12.1961 12.3028 12.254 12.3977L14.0142 15.2827L14.6066 14.8573C14.7822 14.7297 15.0288 14.7707 15.1564 14.9475C15.2832 15.1244 15.243 15.3702 15.0662 15.4974L14.1292 16.1705C14.0402 16.2343 13.9279 16.2591 13.8216 16.2367C13.7141 16.215 13.6203 16.1492 13.5636 16.0559L11.809 13.1799L6.47212 17.2186C6.40044 17.2725 6.31694 17.2985 6.23423 17.2985Z"
        fill="#331B3B" />
    <path
        d="M20.5795 21.863C20.7973 21.863 20.9734 21.6869 20.9734 21.4691V2.24038C20.9734 1.15725 20.0923 0.276184 19.0092 0.276184H2.26055C1.17743 0.276184 0.296753 1.15725 0.296753 2.24038V33.76C0.296753 34.8427 1.17782 35.7238 2.26055 35.7238H19.0088C20.0919 35.7238 20.973 34.8427 20.973 33.76V28.975C20.973 28.7572 20.7969 28.5811 20.5791 28.5811C20.3613 28.5811 20.1852 28.7572 20.1852 28.975V29.9931H1.08448V18.3108L2.10458 19.9803C2.16248 20.0753 2.25819 20.141 2.36729 20.1619C2.39171 20.1666 2.41613 20.169 2.44055 20.169C2.52562 20.169 2.60912 20.1414 2.67844 20.0894L3.92698 19.145C4.10028 19.0134 4.13455 18.7665 4.00339 18.5932C3.87184 18.4199 3.62489 18.3856 3.45159 18.5167L2.55004 19.1989L1.08448 16.8003V4.79457H20.1856V10.8498L17.3478 12.8888C17.171 13.0157 17.1304 13.2618 17.2577 13.4387C17.3345 13.5458 17.4554 13.6029 17.5779 13.6029C17.6574 13.6029 17.7378 13.5789 17.8071 13.5289L20.1856 11.8199V21.4695C20.1856 21.6865 20.3617 21.863 20.5795 21.863ZM20.1856 30.7808V33.7596C20.1856 34.4079 19.6579 34.9357 19.0092 34.9357H2.26055C1.61225 34.9357 1.08448 34.4079 1.08448 33.7596V30.7808H20.1856ZM1.08448 4.00685V2.24038C1.08448 1.59168 1.61225 1.06391 2.26055 1.06391H19.0088C19.6575 1.06391 20.1852 1.59168 20.1852 2.24038V4.00685H1.08448Z"
        fill="#331B3B" />
    <path
        d="M10.6349 34.278C9.86375 34.278 9.23633 33.6505 9.23633 32.8793C9.23633 32.1082 9.86375 31.4803 10.6349 31.4803C11.4061 31.4803 12.0335 32.1082 12.0335 32.8793C12.0335 33.6505 11.4061 34.278 10.6349 34.278ZM10.6349 32.2685C10.2982 32.2685 10.0241 32.5426 10.0241 32.8797C10.0241 33.2169 10.2982 33.4906 10.6349 33.4906C10.9717 33.4906 11.2458 33.2169 11.2458 32.8797C11.2458 32.5426 10.9721 32.2685 10.6349 32.2685Z"
        fill="#331B3B" />
    <path
        d="M13.032 2.90244H8.23786C8.02044 2.90244 7.84399 2.72599 7.84399 2.50858C7.84399 2.29117 8.02044 2.11472 8.23786 2.11472H13.032C13.2498 2.11472 13.4258 2.29117 13.4258 2.50858C13.4258 2.72599 13.2498 2.90244 13.032 2.90244Z"
        fill="#331B3B" />
</svg>