<svg width="193" height="265" viewBox="0 0 193 265" fill="none" xmlns="http://www.w3.org/2000/svg">
    <path
        d="M34.99 230.12C35.803 230.5 36.643 230.69 37.51 230.69C56.93 230.783 76.1231 230.787 95.0901 230.7C113.083 230.613 128.163 224.443 140.33 212.19C149.183 203.27 154.773 192.537 157.1 179.99C157.96 175.343 158.38 169.24 158.36 161.68C158.26 118.973 158.233 77.0033 158.28 35.77C158.28 34.4167 157.603 33.74 156.25 33.74L57.74 33.75C57.508 33.75 57.278 33.7044 57.064 33.6158C56.85 33.5272 56.656 33.3974 56.492 33.2339C56.328 33.0703 56.199 32.8762 56.111 32.6627C56.023 32.4493 55.979 32.2206 55.98 31.99L56.03 1.48C56.03 0.486662 56.527 -0.0100098 57.52 -0.0100098L190.31 -7.59494e-06C190.565 -7.59494e-06 190.817 0.0499124 191.052 0.146904C191.288 0.243896 191.502 0.38606 191.682 0.565277C191.862 0.744494 192.005 0.957255 192.102 1.19141C192.2 1.42557 192.25 1.67654 192.25 1.92999C192.237 53.3433 192.24 105.113 192.26 157.24C192.267 166.72 192.083 173.383 191.71 177.23C188.863 206.777 175.097 230.297 150.41 247.79C138.077 256.537 123.877 261.82 107.81 263.64C102.39 264.26 96.143 264.553 89.07 264.52C60.377 264.38 31.243 264.357 1.67004 264.45C1.36504 264.45 1.07203 264.329 0.857025 264.113C0.641025 263.897 0.52002 263.605 0.52002 263.3V74.61C0.52002 74.2387 0.669044 73.8826 0.933044 73.62C1.19704 73.3575 1.55602 73.21 1.93002 73.21L135.21 73.23C135.458 73.2303 135.699 73.3144 135.893 73.4687C136.087 73.623 136.224 73.8384 136.28 74.08C136.52 75.1467 136.647 76.15 136.66 77.09C136.76 86.3033 136.773 95.9867 136.7 106.14C136.697 106.372 136.603 106.593 136.439 106.756C136.274 106.919 136.052 107.01 135.82 107.01C103.827 106.997 73.063 107.027 43.53 107.1C40.91 107.107 38.07 107.18 35.01 107.32C34.876 107.326 34.745 107.359 34.623 107.416C34.502 107.474 34.393 107.554 34.303 107.654C34.213 107.753 34.143 107.869 34.098 107.996C34.053 108.122 34.033 108.256 34.04 108.39C34.113 109.783 34.153 111.04 34.16 112.16C34.507 153.833 34.607 191.957 34.46 226.53C34.46 227.46 34.21 228.53 34.4 229.38C34.48 229.72 34.677 229.967 34.99 230.12Z"
        fill="white" />
    <path
        d="M72.9299 153.44C72.9299 153.108 73.062 152.791 73.296 152.556C73.531 152.322 73.8479 152.19 74.1799 152.19L95.96 152.11C99.069 152.099 102.149 152.692 105.025 153.853C107.9 155.015 110.516 156.723 112.721 158.88C114.927 161.037 116.679 163.601 117.878 166.425C119.077 169.25 119.7 172.279 119.71 175.34V175.38C119.731 181.562 117.257 187.499 112.833 191.886C108.409 196.272 102.397 198.748 96.1199 198.77L74.34 198.85C74.009 198.85 73.6909 198.718 73.4559 198.484C73.2219 198.249 73.09 197.932 73.09 197.6L72.9299 153.44Z"
        fill="white" />
</svg>