<svg width="1086" height="530" viewBox="0 0 1086 530" fill="none" xmlns="http://www.w3.org/2000/svg">
    <path
        d="M481.99 230.12C482.803 230.5 483.643 230.69 484.51 230.69C503.93 230.783 523.123 230.787 542.09 230.7C560.083 230.613 575.163 224.443 587.33 212.19C596.183 203.27 601.773 192.537 604.1 179.99C604.96 175.343 605.38 169.24 605.36 161.68C605.26 118.973 605.233 77.0033 605.28 35.77C605.28 34.4167 604.603 33.74 603.25 33.74L504.74 33.75C504.508 33.75 504.278 33.7044 504.064 33.6158C503.85 33.5272 503.656 33.3974 503.492 33.2339C503.328 33.0703 503.199 32.8762 503.111 32.6627C503.023 32.4493 502.979 32.2206 502.98 31.99L503.03 1.48C503.03 0.486662 503.527 -0.0100098 504.52 -0.0100098L637.31 -7.62939e-06C637.565 -7.62939e-06 637.817 0.0499124 638.052 0.146904C638.288 0.243896 638.502 0.38606 638.682 0.565277C638.862 0.744494 639.005 0.957255 639.102 1.19141C639.2 1.42557 639.25 1.67654 639.25 1.92999C639.237 53.3433 639.24 105.113 639.26 157.24C639.267 166.72 639.083 173.383 638.71 177.23C635.863 206.777 622.097 230.297 597.41 247.79C585.077 256.537 570.877 261.82 554.81 263.64C549.39 264.26 543.143 264.553 536.07 264.52C507.377 264.38 478.243 264.357 448.67 264.45C448.365 264.45 448.072 264.329 447.857 264.113C447.641 263.897 447.52 263.605 447.52 263.3V74.61C447.52 74.2387 447.669 73.8826 447.933 73.62C448.197 73.3575 448.556 73.21 448.93 73.21L582.21 73.23C582.458 73.2303 582.699 73.3144 582.893 73.4687C583.087 73.623 583.224 73.8384 583.28 74.08C583.52 75.1467 583.647 76.15 583.66 77.09C583.76 86.3033 583.773 95.9867 583.7 106.14C583.697 106.372 583.603 106.593 583.439 106.756C583.274 106.919 583.052 107.01 582.82 107.01C550.827 106.997 520.063 107.027 490.53 107.1C487.91 107.107 485.07 107.18 482.01 107.32C481.876 107.326 481.745 107.359 481.623 107.416C481.502 107.474 481.393 107.554 481.303 107.654C481.213 107.753 481.143 107.869 481.098 107.996C481.053 108.122 481.033 108.256 481.04 108.39C481.113 109.783 481.153 111.04 481.16 112.16C481.507 153.833 481.607 191.957 481.46 226.53C481.46 227.46 481.21 228.53 481.4 229.38C481.48 229.72 481.677 229.967 481.99 230.12Z"
        fill="white" />
    <path
        d="M519.93 153.44C519.93 153.108 520.062 152.791 520.296 152.556C520.531 152.322 520.848 152.19 521.18 152.19L542.96 152.11C546.069 152.099 549.149 152.692 552.025 153.853C554.9 155.015 557.516 156.723 559.721 158.88C561.927 161.037 563.679 163.601 564.878 166.425C566.077 169.25 566.7 172.279 566.71 175.34V175.38C566.731 181.562 564.257 187.499 559.833 191.886C555.409 196.272 549.397 198.748 543.12 198.77L521.34 198.85C521.009 198.85 520.691 198.718 520.456 198.484C520.222 198.249 520.09 197.932 520.09 197.6L519.93 153.44Z"
        fill="white" />
    <path
        d="M773.96 395.38C773.96 411.028 767.744 426.035 756.679 437.099C745.615 448.164 730.608 454.38 714.96 454.38C699.312 454.38 684.305 448.164 673.241 437.099C662.176 426.035 655.96 411.028 655.96 395.38C655.96 379.732 662.176 364.725 673.241 353.661C684.305 342.596 699.312 336.38 714.96 336.38C730.608 336.38 745.615 342.596 756.679 353.661C767.744 364.725 773.96 379.732 773.96 395.38ZM712.77 439.287C724.388 439.856 735.757 435.768 744.376 427.925C752.995 420.081 758.157 409.123 758.728 397.463C759.298 385.802 755.229 374.393 747.417 365.745C739.605 357.098 728.689 351.921 717.07 351.353C705.452 350.784 694.083 354.872 685.464 362.715C676.845 370.559 671.683 381.517 671.112 393.177C670.542 404.838 674.611 416.247 682.423 424.895C690.235 433.542 701.151 438.719 712.77 439.287Z"
        fill="white" />
    <path
        d="M983.18 409.9C983.114 409.709 982.988 409.545 982.823 409.432C982.657 409.318 982.46 409.262 982.26 409.27C971.213 409.623 959.92 409.647 948.38 409.34C946.38 409.28 942.6 409.61 942.63 406.57C942.663 403.55 942.7 400.503 942.74 397.43C942.745 396.98 942.927 396.55 943.245 396.234C943.563 395.917 943.993 395.74 944.44 395.74H998.49C998.807 395.74 999.111 395.863 999.339 396.083C999.567 396.303 999.7 396.603 999.71 396.92C999.857 400.78 999.773 404.467 999.46 407.98C998.32 420.633 993.203 431.267 984.11 439.88C972.14 451.2 956.31 455 939.83 454.06C922.283 453.06 908.023 445.91 897.05 432.61C880.13 412.1 879.76 380.23 896.22 359.23C906.82 345.697 920.68 338.23 937.8 336.83C955.86 335.35 971.333 340.71 984.22 352.91C986.98 355.523 989.407 358.577 991.5 362.07C992.4 363.563 992.09 364.737 990.57 365.59C987.52 367.29 984.74 369.09 981.57 370.49C981.085 370.705 980.542 370.747 980.03 370.608C979.519 370.47 979.07 370.16 978.76 369.73C968.927 356.13 955.293 350.14 937.86 351.76C930.6 352.44 924.157 354.723 918.53 358.61C906.303 367.043 899.913 378.783 899.36 393.83C898.99 404.2 901.89 414.47 908.36 422.68C919.99 437.41 938.17 441.69 956.05 437.89C967.403 435.483 975.723 429.36 981.01 419.52C982.45 416.84 984.21 412.83 983.18 409.9Z"
        fill="white" />
    <path
        d="M154.42 359.73C153.847 358.043 153.227 358.03 152.56 359.69C151.173 363.15 149.81 366.717 148.47 370.39C138.41 397.937 128.647 424.743 119.18 450.81C119.036 451.21 118.774 451.556 118.429 451.802C118.084 452.049 117.673 452.184 117.25 452.19L103.71 452.35C103.539 452.352 103.369 452.313 103.217 452.235C103.064 452.158 102.932 452.044 102.833 451.904C102.734 451.765 102.67 451.603 102.647 451.434C102.624 451.264 102.642 451.091 102.7 450.93L144.13 340.06C144.291 339.625 144.583 339.251 144.967 338.991C145.351 338.731 145.807 338.598 146.27 338.61L160.38 338.95C160.882 338.962 161.368 339.124 161.777 339.415C162.185 339.705 162.496 340.111 162.67 340.58C175.617 375.487 188.55 410.14 201.47 444.54C202.27 446.68 202.893 448.77 203.34 450.81C203.388 451.038 203.381 451.274 203.319 451.498C203.258 451.722 203.143 451.929 202.986 452.1C202.828 452.271 202.632 452.402 202.414 452.482C202.195 452.562 201.961 452.589 201.73 452.56C198.11 452.093 194.407 452.103 190.62 452.59C190.207 452.644 189.786 452.583 189.404 452.414C189.021 452.245 188.691 451.974 188.45 451.63C187.383 450.103 186.45 448.243 185.65 446.05C176.03 419.677 166.583 393.66 157.31 368C156.377 365.4 155.413 362.643 154.42 359.73Z"
        fill="white" />
    <path
        d="M0.689969 340.5C0.688652 340.262 0.734164 340.027 0.823911 339.807C0.913657 339.586 1.04588 339.386 1.21303 339.217C1.38017 339.048 1.57897 338.914 1.79807 338.822C2.01717 338.729 2.25227 338.681 2.48996 338.68L44.2 338.46C51.3911 338.422 58.5194 339.804 65.1777 342.528C71.8361 345.252 77.8942 349.264 83.006 354.335C88.1179 359.406 92.1835 365.437 94.9706 372.083C97.7578 378.729 99.2119 385.86 99.25 393.07L99.27 397.11C99.3083 404.32 97.9297 411.466 95.213 418.142C92.4963 424.817 88.4947 430.891 83.4367 436.016C78.3786 441.14 72.3632 445.216 65.7339 448.01C59.1046 450.805 51.9912 452.262 44.8 452.3L3.08996 452.52C2.85227 452.521 2.61665 452.476 2.39654 452.386C2.17644 452.296 1.97617 452.164 1.80716 451.997C1.63816 451.83 1.50374 451.631 1.41156 451.412C1.31939 451.193 1.27127 450.958 1.26996 450.72L0.689969 340.5ZM16.18 355.05L16.32 435.85C16.32 436.383 16.5317 436.894 16.9087 437.271C17.2856 437.648 17.7969 437.86 18.33 437.86L44.8 437.81C50.0188 437.801 55.1847 436.752 60.0027 434.724C64.8207 432.696 69.1965 429.728 72.8802 425.989C76.5639 422.251 79.4834 417.815 81.472 412.936C83.4606 408.056 84.4793 402.828 84.47 397.55V393.11C84.4512 382.451 80.2464 372.236 72.7806 364.712C65.3148 357.188 55.1995 352.972 44.66 352.99L18.19 353.04C17.6569 353.04 17.1456 353.252 16.7687 353.629C16.3917 354.006 16.18 354.517 16.18 355.05Z"
        fill="white" />
    <path
        d="M286.49 421.25C287.19 419.37 287.75 417.08 287.75 415.03C287.743 389.61 287.75 364.513 287.77 339.74C287.77 339.597 287.799 339.455 287.854 339.323C287.91 339.192 287.991 339.072 288.094 338.973C288.196 338.873 288.318 338.795 288.451 338.743C288.585 338.691 288.727 338.666 288.87 338.67L302.12 339.01C302.374 339.015 302.615 339.12 302.793 339.301C302.971 339.482 303.07 339.726 303.07 339.98L303.04 450.28C303.04 450.551 302.986 450.819 302.882 451.069C302.778 451.319 302.625 451.546 302.433 451.737C302.24 451.927 302.012 452.078 301.761 452.18C301.51 452.282 301.241 452.333 300.97 452.33L292.83 452.24C292.184 452.231 291.55 452.066 290.979 451.76C290.408 451.454 289.918 451.015 289.55 450.48C276.163 430.947 261.48 409.62 245.5 386.5C241.727 381.047 238.42 376.153 235.58 371.82C233.653 368.88 232.69 369.167 232.69 372.68L232.73 450.79C232.73 450.988 232.691 451.184 232.615 451.366C232.539 451.549 232.427 451.715 232.287 451.854C232.147 451.994 231.98 452.104 231.797 452.179C231.614 452.253 231.418 452.291 231.22 452.29L219.23 452.22C217.91 452.213 217.25 451.55 217.25 450.23L217.26 340.22C217.267 339.207 217.773 338.707 218.78 338.72L227.62 338.8C228.18 338.806 228.73 338.947 229.224 339.209C229.718 339.472 230.142 339.85 230.46 340.31C247.513 365.143 264.787 390.163 282.28 415.37C283.56 417.21 284.36 419.26 285.32 421.3C285.371 421.413 285.455 421.508 285.561 421.573C285.667 421.638 285.791 421.67 285.915 421.664C286.04 421.659 286.162 421.617 286.264 421.543C286.366 421.469 286.445 421.367 286.49 421.25Z"
        fill="white" />
    <path
        d="M341.14 338.82H328.6C327.849 338.82 327.24 339.429 327.24 340.18V450.9C327.24 451.651 327.849 452.26 328.6 452.26H341.14C341.891 452.26 342.5 451.651 342.5 450.9V340.18C342.5 339.429 341.891 338.82 341.14 338.82Z"
        fill="white" />
    <path
        d="M382.99 437.37C383.75 437.623 384.52 437.75 385.3 437.75C398.713 437.73 411.8 437.71 424.56 437.69C427.053 437.69 429.68 437.743 432.44 437.85C432.872 437.868 433.285 438.034 433.609 438.322C433.933 438.61 434.149 439.001 434.22 439.43C434.813 443.13 434.913 446.913 434.52 450.78C434.481 451.135 434.314 451.464 434.05 451.703C433.787 451.943 433.445 452.077 433.09 452.08C410.537 452.4 388.62 452.37 367.34 451.99C367.007 451.983 366.797 451.817 366.71 451.49C366.403 450.33 366.25 449.147 366.25 447.94C366.21 410.667 366.267 374.843 366.42 340.47C366.419 340.109 366.556 339.761 366.802 339.496C367.049 339.231 367.388 339.068 367.75 339.04C369.47 338.907 371.207 338.83 372.96 338.81C391.76 338.65 409.687 338.65 426.74 338.81C428.613 338.83 430.53 338.933 432.49 339.12C432.789 339.148 433.067 339.287 433.268 339.51C433.468 339.732 433.576 340.022 433.57 340.32L433.44 351.7C433.437 352.068 433.29 352.42 433.03 352.68C432.77 352.94 432.418 353.087 432.05 353.09L383.35 353.36C382.942 353.36 382.55 353.522 382.261 353.811C381.972 354.1 381.81 354.492 381.81 354.9L381.75 385.94C381.75 386.423 381.941 386.886 382.28 387.227C382.62 387.568 383.08 387.76 383.56 387.76C397.82 387.773 411.163 387.74 423.59 387.66C424.983 387.647 426.413 387.73 427.88 387.91C428.336 387.966 428.755 388.186 429.059 388.529C429.363 388.872 429.531 389.313 429.53 389.77L429.51 400.24C429.507 400.706 429.321 401.152 428.992 401.482C428.662 401.811 428.216 401.997 427.75 402L382.79 402.03C382.511 402.03 382.244 402.141 382.048 402.338C381.851 402.534 381.74 402.802 381.74 403.08C381.727 414.753 381.753 425.22 381.82 434.48C381.82 435.22 381.97 435.96 382.27 436.7C382.41 437.033 382.65 437.257 382.99 437.37Z"
        fill="white" />
    <path
        d="M467.53 436.8C467.723 437.467 468.053 437.797 468.52 437.79C483.387 437.67 498.883 437.683 515.01 437.83C515.208 437.831 515.404 437.872 515.587 437.949C515.77 438.026 515.936 438.138 516.075 438.279C516.214 438.421 516.324 438.588 516.399 438.771C516.474 438.955 516.511 439.152 516.51 439.35L516.47 450.88C516.47 451.235 516.328 451.576 516.075 451.828C515.821 452.079 515.478 452.22 515.12 452.22L453.74 452.28C453.445 452.284 453.159 452.176 452.939 451.978C452.719 451.78 452.58 451.506 452.55 451.21C452.417 449.903 452.347 448.703 452.34 447.61C452.193 412.23 452.18 376.28 452.3 339.76C452.307 339.047 452.667 338.693 453.38 338.7L466.08 338.86C467.053 338.873 467.54 339.363 467.54 340.33L467.52 436.75C467.52 436.763 467.524 436.78 467.53 436.8Z"
        fill="white" />
    <path
        d="M622.64 427.84C623.94 424.447 624.583 420.453 624.57 415.86C624.47 389.42 624.453 364.103 624.52 339.91C624.52 339.753 624.551 339.597 624.611 339.452C624.671 339.307 624.758 339.176 624.869 339.065C624.98 338.954 625.111 338.867 625.255 338.808C625.4 338.748 625.554 338.719 625.71 338.72L638.09 338.82C638.284 338.821 638.477 338.861 638.656 338.937C638.835 339.013 638.997 339.124 639.134 339.263C639.27 339.403 639.378 339.568 639.451 339.749C639.524 339.93 639.561 340.124 639.56 340.32C639.413 363.667 639.423 387.18 639.59 410.86C639.657 420.14 639.157 426.657 638.09 430.41C633.04 448.14 614.78 455.48 597.23 454.02C584.3 452.95 572.49 447.12 566.63 435.68C566.483 435.393 566.395 435.079 566.372 434.757C566.348 434.435 566.39 434.112 566.495 433.807C566.599 433.502 566.765 433.221 566.98 432.981C567.196 432.741 567.458 432.547 567.75 432.41C571.057 430.87 573.94 429.177 576.4 427.33C576.629 427.157 576.892 427.036 577.171 426.973C577.451 426.911 577.74 426.909 578.02 426.967C578.3 427.026 578.563 427.144 578.793 427.314C579.022 427.483 579.212 427.7 579.35 427.95C582.39 433.443 587.02 436.9 593.24 438.32C603.52 440.67 618.36 438.98 622.64 427.84Z"
        fill="white" />
    <path
        d="M860.04 452.19C859.107 451.797 858.453 451.287 858.08 450.66C850.087 437.167 842.257 423.75 834.59 410.41C834.295 409.899 833.872 409.475 833.363 409.18C832.854 408.885 832.277 408.73 831.69 408.73L808.29 408.74C807.41 408.74 806.973 409.18 806.98 410.06L807.04 450.58C807.04 451.013 806.869 451.429 806.563 451.736C806.258 452.043 805.843 452.217 805.41 452.22L793.62 452.3C793.179 452.305 792.753 452.136 792.437 451.829C792.12 451.521 791.938 451.101 791.93 450.66L791.73 440.53L791.72 339.83C791.72 339.557 791.829 339.295 792.022 339.102C792.215 338.909 792.477 338.8 792.75 338.8C806.95 338.707 821.78 338.69 837.24 338.75C841.84 338.77 846.39 339.633 850.89 341.34C861.47 345.36 869.93 356.15 871.85 367.1C874.86 384.29 866.27 399.2 850.76 406.28C850.56 406.371 850.382 406.503 850.237 406.668C850.093 406.833 849.984 407.026 849.919 407.236C849.854 407.445 849.834 407.666 849.86 407.884C849.886 408.102 849.957 408.312 850.07 408.5C857.223 420.38 864.477 432.613 871.83 445.2C872.883 446.993 873.83 448.783 874.67 450.57C874.763 450.768 874.805 450.986 874.79 451.204C874.776 451.422 874.707 451.633 874.589 451.816C874.471 452 874.308 452.151 874.116 452.255C873.924 452.359 873.708 452.412 873.49 452.41L860.04 452.19ZM807.04 354.35L806.9 393.47C806.899 393.667 806.936 393.861 807.011 394.043C807.085 394.225 807.194 394.391 807.333 394.53C807.471 394.669 807.636 394.78 807.818 394.856C807.999 394.931 808.194 394.97 808.39 394.97L836.03 395.06C841.643 395.079 847.034 392.897 851.017 388.995C855 385.092 857.249 379.789 857.27 374.25V373.93C857.28 371.186 856.743 368.467 855.688 365.928C854.633 363.388 853.082 361.079 851.122 359.132C849.163 357.185 846.834 355.637 844.268 354.578C841.703 353.519 838.951 352.969 836.17 352.96L808.53 352.87C808.137 352.87 807.759 353.026 807.48 353.303C807.201 353.58 807.043 353.957 807.04 354.35Z"
        fill="white" />
    <path
        d="M1038.29 437.67C1051.36 437.657 1064.43 437.707 1077.5 437.82C1080.07 437.847 1082.68 438.11 1085.33 438.61C1086.12 442.957 1086.14 447.13 1085.4 451.13C1085.3 451.657 1084.98 451.93 1084.45 451.95C1081.09 452.07 1077.94 452.143 1074.99 452.17C1056.54 452.363 1038.19 452.333 1019.94 452.08C1019.36 452.072 1018.81 451.837 1018.4 451.425C1018 451.013 1017.77 450.458 1017.77 449.88L1017.75 340.39C1017.75 339.31 1018.29 338.77 1019.36 338.77L1083.06 338.75C1083.3 338.749 1083.53 338.795 1083.75 338.886C1083.97 338.976 1084.17 339.11 1084.33 339.279C1084.5 339.448 1084.63 339.648 1084.72 339.868C1084.8 340.088 1084.85 340.323 1084.84 340.56L1084.63 352.13C1084.62 352.79 1084.28 353.12 1083.62 353.12L1034.64 353.28C1034.21 353.283 1033.8 353.453 1033.5 353.755C1033.2 354.057 1033.03 354.465 1033.03 354.89L1032.97 386.01C1032.97 386.245 1033.01 386.477 1033.1 386.694C1033.19 386.911 1033.32 387.109 1033.49 387.275C1033.66 387.441 1033.85 387.573 1034.07 387.664C1034.29 387.754 1034.52 387.8 1034.76 387.8L1078.72 387.71C1079.94 387.71 1080.6 388.317 1080.69 389.53C1080.97 393.11 1080.94 396.86 1080.61 400.78C1080.58 401.13 1080.42 401.456 1080.16 401.693C1079.91 401.93 1079.57 402.061 1079.22 402.06L1034.25 401.98C1033.91 401.98 1033.58 402.114 1033.34 402.352C1033.1 402.59 1032.97 402.913 1032.97 403.25L1032.99 435.87C1032.99 437.07 1033.59 437.67 1034.8 437.67H1038.29Z"
        fill="white" />
    <path
        d="M438.17 495.77C437.63 495.537 437.26 495.647 437.06 496.1C432.74 506.153 428.333 515.977 423.84 525.57C423.2 526.94 421.73 529.74 419.77 528.61C419.512 528.461 419.311 528.232 419.197 527.957C419.083 527.682 419.063 527.377 419.14 527.09C420.07 523.57 421.91 520.35 423.49 516.97C427.19 509.077 430.637 501.353 433.83 493.8C434.443 492.347 435.307 491.053 436.42 489.92C436.745 489.591 437.185 489.401 437.646 489.39C438.107 489.378 438.553 489.547 438.89 489.86C440.317 491.18 441.497 492.913 442.43 495.06C446.35 504.127 450.417 513.13 454.63 522.07C455.5 523.91 456.43 525.66 456.54 527.78C456.554 528.031 456.493 528.281 456.364 528.497C456.234 528.714 456.043 528.886 455.815 528.993C455.587 529.099 455.332 529.135 455.083 529.095C454.835 529.056 454.604 528.942 454.42 528.77C453.12 527.557 452.093 526.117 451.34 524.45C447.14 515.11 442.91 505.71 438.65 496.25C438.553 496.037 438.383 495.867 438.17 495.77Z"
        fill="white" />
    <path
        d="M645.85 501.3C644.697 502.333 644.107 503.717 644.08 505.45C643.993 511.81 643.897 518.557 643.79 525.69C643.763 527.17 643.193 528.22 642.08 528.84C641.853 528.967 641.6 528.947 641.32 528.78C640.453 528.253 640 527.487 639.96 526.48C639.687 519.973 639.63 509.007 639.79 493.58C639.81 492.133 640.073 490.853 640.58 489.74C640.623 489.642 640.686 489.555 640.765 489.483C640.844 489.411 640.937 489.356 641.039 489.321C641.141 489.287 641.25 489.273 641.358 489.281C641.467 489.29 641.573 489.32 641.67 489.37C642.65 489.877 643.467 490.63 644.12 491.63C648.76 498.757 653.177 506.447 657.37 514.7C658.103 516.153 659.177 516.383 660.59 515.39C661.663 514.637 662.557 513.61 663.27 512.31C666.717 506.003 670.09 500.03 673.39 494.39C674.417 492.643 675.67 491 677.15 489.46C677.247 489.359 677.366 489.28 677.498 489.231C677.63 489.182 677.771 489.162 677.911 489.175C678.051 489.187 678.187 489.231 678.308 489.303C678.429 489.375 678.532 489.473 678.61 489.59C679.323 490.67 679.69 492 679.71 493.58C679.837 501.78 679.84 510.093 679.72 518.52C679.7 519.653 679.65 520.787 679.57 521.92C679.17 527.333 678.317 529.6 677.01 528.72C676.123 528.127 675.68 527.297 675.68 526.23C675.667 519.323 675.67 512.67 675.69 506.27C675.697 504.29 675.27 502.47 674.41 500.81C674.347 500.686 674.25 500.583 674.13 500.512C674.011 500.441 673.873 500.406 673.733 500.41C673.593 500.414 673.457 500.458 673.34 500.536C673.222 500.613 673.129 500.722 673.07 500.85C672.21 502.78 671.98 504.59 670.83 506.44C667.75 511.387 664.843 516.287 662.11 521.14C660.61 523.79 657.65 523.33 656.66 520.51C656.22 519.28 655.57 518.03 654.85 516.94C651.55 511.987 648.887 506.853 646.86 501.54C646.823 501.445 646.764 501.36 646.687 501.293C646.61 501.225 646.517 501.178 646.418 501.154C646.319 501.131 646.215 501.132 646.116 501.157C646.017 501.182 645.926 501.231 645.85 501.3Z"
        fill="white" />
    <path
        d="M196.21 493.05L209.4 516.66C209.472 516.79 209.591 516.886 209.733 516.929C209.875 516.972 210.028 516.958 210.16 516.89C211.26 516.297 212.14 515.447 212.8 514.34C217.36 506.7 221.533 499.46 225.32 492.62C226.12 491.167 227.25 490.15 228.71 489.57C228.884 489.501 229.073 489.483 229.257 489.516C229.441 489.55 229.612 489.634 229.75 489.76C230.663 490.587 231.103 491.75 231.07 493.25C230.937 498.67 230.817 509.647 230.71 526.18C230.708 526.494 230.638 526.804 230.505 527.086C230.372 527.368 230.179 527.616 229.941 527.809C229.703 528.002 229.427 528.136 229.134 528.2C228.841 528.265 228.538 528.258 228.25 528.18L227.97 528.1C227.07 527.853 226.617 527.267 226.61 526.34C226.57 520.853 226.53 515.347 226.49 509.82C226.47 507.07 226.93 504.16 227.12 501.59C227.293 499.237 226.707 499.03 225.36 500.97C221.733 506.177 218.453 511.573 215.52 517.16C214.36 519.373 212.903 521.33 211.15 523.03C211.002 523.171 210.824 523.277 210.63 523.34C210.436 523.403 210.231 523.422 210.029 523.395C209.827 523.368 209.634 523.296 209.465 523.185C209.295 523.073 209.154 522.924 209.05 522.75C205.617 517.003 202.34 511.077 199.22 504.97C198.42 503.41 197.253 502.42 195.72 502C195.617 501.973 195.51 501.969 195.406 501.988C195.302 502.008 195.203 502.05 195.119 502.113C195.034 502.176 194.965 502.257 194.916 502.35C194.868 502.443 194.842 502.545 194.84 502.65C194.673 510.423 194.69 518.207 194.89 526C194.917 527.053 194.437 527.823 193.45 528.31C191.597 528.337 190.683 527.4 190.71 525.5C190.883 515.107 190.847 504.103 190.6 492.49C190.573 491.29 190.907 490.433 191.6 489.92C191.797 489.773 192.02 489.667 192.258 489.608C192.496 489.548 192.744 489.536 192.986 489.572C193.229 489.608 193.462 489.692 193.672 489.819C193.882 489.945 194.065 490.112 194.21 490.31L196.21 493.05Z"
        fill="white" />
    <path
        d="M374.99 519.18C375.149 519.13 375.287 519.031 375.384 518.898C375.482 518.765 375.533 518.604 375.53 518.44L375.26 491.6C375.257 491.309 375.312 491.02 375.422 490.751C375.532 490.481 375.694 490.236 375.9 490.03C376.54 489.39 377.087 489.217 377.54 489.51C378.793 490.323 379.433 491.463 379.46 492.93C379.68 503.803 379.663 515.127 379.41 526.9C379.405 527.185 379.329 527.464 379.191 527.713C379.053 527.962 378.855 528.173 378.616 528.329C378.376 528.485 378.102 528.58 377.817 528.606C377.532 528.632 377.245 528.589 376.98 528.48C375.993 528.067 375.153 527.41 374.46 526.51C369.607 520.223 364.55 513.863 359.29 507.43C357.49 505.237 355.983 502.913 354.77 500.46C354.677 500.272 354.54 500.109 354.37 499.985C354.2 499.862 354.002 499.782 353.794 499.753C353.586 499.723 353.374 499.745 353.177 499.816C352.979 499.887 352.802 500.005 352.66 500.16C352.18 500.68 351.93 501.377 351.91 502.25C351.73 509.03 351.667 516.37 351.72 524.27C351.733 525.77 351.42 527.037 350.78 528.07C350.637 528.296 350.445 528.487 350.218 528.63C349.992 528.772 349.736 528.861 349.471 528.891C349.206 528.92 348.938 528.89 348.686 528.802C348.435 528.713 348.207 528.569 348.02 528.38C347.527 527.887 347.28 527.28 347.28 526.56C347.253 514.673 347.243 502.913 347.25 491.28C347.25 491.014 347.313 490.753 347.433 490.516C347.553 490.279 347.728 490.074 347.942 489.917C348.156 489.761 348.404 489.656 348.666 489.614C348.928 489.571 349.197 489.59 349.45 489.67C350.323 489.943 351.157 490.553 351.95 491.5C357.35 497.907 362.333 504.163 366.9 510.27C369.11 513.22 371.62 515.83 373.75 518.8C374.057 519.22 374.47 519.347 374.99 519.18Z"
        fill="white" />
    <path
        d="M526.99 515.59C526.93 518.78 527.69 523.83 524.24 525.73C516.31 530.1 506.8 529.37 499.6 524.46C494.97 521.29 492.49 514.75 492.34 509.48C492.04 499.52 498.73 491.96 508.58 489.94C512.473 489.06 516.953 489.617 522.02 491.61C523.22 492.077 524.257 492.783 525.13 493.73C526.277 494.977 526.66 496.073 526.28 497.02C526.231 497.143 526.156 497.254 526.06 497.346C525.963 497.437 525.849 497.507 525.723 497.551C525.597 497.594 525.463 497.61 525.329 497.598C525.196 497.586 525.067 497.546 524.95 497.48C518.903 494.06 513.59 492.923 509.01 494.07C501.277 496.01 497.127 500.977 496.56 508.97C496.18 514.28 499.57 520.2 504.45 522.7C509.45 525.267 514.713 525.513 520.24 523.44C522.4 522.63 522.78 520.75 522.58 518.43C522.333 515.623 522.343 512.733 522.61 509.76C522.629 509.56 522.687 509.365 522.782 509.187C522.876 509.01 523.005 508.853 523.161 508.726C523.316 508.6 523.496 508.505 523.688 508.449C523.88 508.393 524.081 508.377 524.28 508.4C527.08 508.72 526.69 513.42 526.99 515.59Z"
        fill="white" />
    <path
        d="M306.81 528.96C305.197 528.873 303.86 527.637 302.8 525.25C299.547 517.903 296.257 510.57 292.93 503.25C292.04 501.29 291.46 499.11 290.81 497.09C290.748 496.89 290.63 496.712 290.471 496.577C290.312 496.441 290.118 496.353 289.911 496.322C289.704 496.292 289.493 496.321 289.302 496.405C289.11 496.49 288.947 496.627 288.83 496.8C287.32 499 285.89 501.29 284.82 503.7C281.553 511.093 278.153 518.737 274.62 526.63C274.353 527.229 273.906 527.731 273.34 528.071C272.773 528.41 272.114 528.571 271.45 528.53C271.33 528.523 271.21 528.503 271.09 528.47C270.043 528.163 269.737 527.51 270.17 526.51L272.3 521.64C272.987 520.16 273.64 518.733 274.26 517.36C276.507 512.36 279.337 506.323 282.75 499.25C283.75 497.183 284.75 494.857 285.75 492.27C287.12 488.74 290.67 488.86 292.23 492.32C297.063 503.067 302.04 514.08 307.16 525.36C307.633 526.393 307.517 527.593 306.81 528.96Z"
        fill="white" />
    <path
        d="M576.86 510.93C576.296 510.933 575.754 511.148 575.343 511.532C574.931 511.916 574.68 512.44 574.64 513C574.427 516.107 574.487 519.35 574.82 522.73C574.844 522.967 574.932 523.193 575.075 523.382C575.218 523.571 575.41 523.716 575.63 523.8C576.67 524.207 577.813 524.42 579.06 524.44C585.287 524.527 590.9 524.553 595.9 524.52C596.238 524.52 596.567 524.625 596.84 524.82C597.54 525.327 597.877 525.823 597.85 526.31C597.783 527.477 597.167 528.067 596 528.08L572.41 528.35C572.155 528.353 571.902 528.304 571.665 528.208C571.429 528.112 571.214 527.969 571.032 527.789C570.851 527.608 570.707 527.394 570.609 527.157C570.511 526.92 570.46 526.666 570.46 526.41L570.51 490.92C570.51 490.668 570.61 490.426 570.788 490.248C570.966 490.07 571.208 489.97 571.46 489.97L595.69 490.08C596.617 490.087 597.123 490.547 597.21 491.46C597.223 491.573 597.23 491.687 597.23 491.8C597.235 492.326 597.032 492.833 596.665 493.21C596.298 493.586 595.796 493.802 595.27 493.81L576.51 494.13C576.175 494.136 575.851 494.254 575.592 494.467C575.332 494.679 575.152 494.973 575.08 495.3C574.367 498.547 574.31 501.967 574.91 505.56C574.975 505.945 575.172 506.296 575.468 506.552C575.764 506.807 576.139 506.952 576.53 506.96C580.45 507.033 584.533 507.06 588.78 507.04C591.04 507.033 592.987 507.35 594.62 507.99C596.067 508.563 596.093 509.193 594.7 509.88C593.68 510.38 592.55 510.647 591.31 510.68C586.47 510.82 581.653 510.903 576.86 510.93Z"
        fill="white" />
    <path
        d="M798.45 501.94C798.73 503.753 798.78 505.72 798.6 507.84C798 514.733 797.93 520.667 798.39 525.64C798.537 527.24 797.807 528.037 796.2 528.03H795.83C794.217 528.023 793.407 527.213 793.4 525.6C793.373 519.627 793.27 513.48 793.09 507.16C792.94 501.94 793.35 496.84 793.59 491.72C793.606 491.382 793.701 491.053 793.869 490.759C794.037 490.465 794.272 490.215 794.555 490.03C794.838 489.844 795.161 489.729 795.497 489.692C795.834 489.656 796.174 489.699 796.49 489.82C797.477 490.2 798.32 490.84 799.02 491.74C805.427 499.92 811.473 507.717 817.16 515.13C818.073 516.323 819.247 517.26 820.68 517.94C820.848 518.018 821.034 518.048 821.217 518.029C821.401 518.009 821.576 517.94 821.722 517.828C821.869 517.717 821.982 517.568 822.048 517.397C822.115 517.226 822.133 517.04 822.1 516.86C821.887 515.66 821.76 514.463 821.72 513.27C821.48 506.25 821.35 499.25 821.33 492.27C821.33 491.143 821.887 490.52 823 490.4L824.45 490.24C825.61 490.113 826.187 490.633 826.18 491.8C826.12 499.31 825.82 506.83 826.18 514.31C826.387 518.61 826.257 522.883 825.79 527.13C825.76 527.395 825.658 527.647 825.496 527.857C825.334 528.067 825.117 528.227 824.87 528.32C823.777 528.72 822.803 528.463 821.95 527.55C820.01 525.457 818.147 523.26 816.36 520.96C811.8 515.06 807.307 509.32 802.88 503.74C802.08 502.733 801.123 501.817 800.01 500.99C798.723 500.037 798.203 500.353 798.45 501.94Z"
        fill="white" />
    <path
        d="M884.3 494.42C883.876 494.462 883.48 494.653 883.185 494.96C882.89 495.266 882.714 495.667 882.69 496.09C882.137 505.57 882.123 515.59 882.65 526.15C882.723 527.637 882.02 528.317 880.54 528.19L880.03 528.15C878.897 528.05 878.327 527.427 878.32 526.28L878.23 495.86C878.231 495.512 878.101 495.177 877.865 494.921C877.63 494.665 877.307 494.508 876.96 494.48L866.28 493.59C865.36 493.51 864.84 493.017 864.72 492.11C864.68 491.803 864.7 491.493 864.78 491.18C864.869 490.823 865.076 490.506 865.368 490.279C865.66 490.053 866.02 489.93 866.39 489.93L894.09 489.89C895.23 489.883 895.773 490.45 895.72 491.59L895.68 492.75C895.633 493.863 895.053 494.373 893.94 494.28C890.88 494.033 887.667 494.08 884.3 494.42Z"
        fill="white" />
    <path
        d="M729.08 506.72C729.267 506.753 729.46 506.773 729.66 506.78C736.147 506.913 742.047 507.11 747.36 507.37C748.36 507.417 748.91 507.937 749.01 508.93C749.057 509.417 748.653 509.9 747.8 510.38C747.57 510.511 747.309 510.583 747.04 510.59L729.42 511.03C729.116 511.038 728.827 511.165 728.616 511.384C728.404 511.603 728.287 511.896 728.29 512.2L728.41 522.54C728.412 522.947 728.568 523.338 728.849 523.635C729.129 523.932 729.512 524.112 729.92 524.14C736.693 524.56 743.477 524.637 750.27 524.37C751.05 524.343 751.423 524.72 751.39 525.5L751.33 526.93C751.283 527.923 750.763 528.4 749.77 528.36C742.05 528.073 734.007 528.097 725.64 528.43C725.468 528.437 725.296 528.409 725.135 528.347C724.974 528.286 724.827 528.193 724.702 528.073C724.578 527.954 724.479 527.81 724.412 527.652C724.345 527.493 724.31 527.322 724.31 527.15V491.34C724.31 490.447 724.76 490 725.66 490L750.12 490.04C751.18 490.047 751.613 490.573 751.42 491.62L751.38 491.86C751.173 492.967 750.507 493.54 749.38 493.58L729.68 494.33C729.359 494.34 729.054 494.474 728.829 494.703C728.603 494.932 728.475 495.239 728.47 495.56L728.32 505.8C728.317 506.017 728.391 506.229 728.53 506.397C728.669 506.566 728.864 506.68 729.08 506.72Z"
        fill="white" />
</svg>