<svg width="1581" height="1001" viewBox="0 0 1581 1001" fill="none" xmlns="http://www.w3.org/2000/svg">
    <path
        d="M476.565 730.18C476.545 729.06 476.095 728.843 475.215 729.53C427.745 766.67 371.795 788.73 312.135 792.45C306.909 792.777 301.769 792.993 296.715 793.1C286.795 793.32 275.709 792.833 263.455 791.64C192.985 784.8 127.365 752.11 78.9455 700.36C33.0455 651.3 5.53548 588.28 0.885478 521.14C0.558812 516.46 0.30548 511.703 0.12548 506.87C-0.22452 497.77 0.205481 488.9 0.825481 480.1C4.46548 428.527 20.6221 381.11 49.2955 337.85C57.4555 325.53 66.4455 314.043 76.2655 303.39C119.519 256.47 172.222 226.523 234.375 213.55C246.355 211.043 259.162 209.33 272.796 208.41C281.526 207.82 290.805 207.92 299.865 207.9C303.479 207.893 307.085 208.01 310.685 208.25C372.005 212.29 426.896 233.38 475.355 271.52C475.715 271.8 475.992 271.733 476.185 271.32C476.292 271.093 476.345 270.85 476.345 270.59C476.352 180.663 476.355 90.9133 476.355 1.34C476.355 0.453333 476.799 0.0100002 477.685 0.0100002L633.885 0C634.825 0 635.299 0.47 635.305 1.41C635.365 79.3433 635.356 158.473 635.276 238.8C635.269 240.92 635.382 242.897 635.615 244.73C635.629 244.837 635.673 244.938 635.742 245.022C635.81 245.105 635.901 245.167 636.004 245.201C636.107 245.234 636.217 245.238 636.322 245.211C636.426 245.184 636.521 245.129 636.595 245.05C637.229 244.363 637.969 243.82 638.815 243.42C697.869 215.753 759.369 208.053 823.315 220.32C829.489 221.507 835.942 223.013 842.675 224.84C882.929 235.76 919.569 254.787 952.595 281.92C956.349 285.007 960.036 288.117 963.656 291.25C964.522 292.003 964.882 291.81 964.735 290.67C964.575 289.383 964.495 288.113 964.495 286.86C964.402 267.573 964.385 245.987 964.445 222.1C964.445 221.58 964.705 221.32 965.225 221.32H1110.31C1110.52 221.32 1110.72 221.405 1110.87 221.557C1111.02 221.709 1111.11 221.915 1111.11 222.13L1111.12 261.72C1111.11 261.826 1111.14 261.93 1111.19 262.022C1111.25 262.113 1111.32 262.189 1111.41 262.241C1111.51 262.293 1111.61 262.32 1111.72 262.318C1111.82 262.316 1111.93 262.286 1112.02 262.23C1124.88 254.597 1138.15 247.82 1151.84 241.9C1194.22 223.567 1239.05 213.177 1286.33 210.73C1348.93 207.49 1412.06 218.76 1469 244.77C1507.05 262.15 1540.77 285.517 1570.15 314.87C1573.71 318.43 1576.62 322.41 1580.38 325.77C1580.46 325.844 1580.52 325.935 1580.56 326.038C1580.6 326.14 1580.61 326.25 1580.6 326.358C1580.58 326.466 1580.55 326.569 1580.48 326.658C1580.42 326.747 1580.34 326.82 1580.25 326.87L1459.56 390.81C1459.22 390.99 1458.91 390.94 1458.65 390.66C1457.02 388.967 1455.37 387.277 1453.69 385.59C1418.7 350.49 1371 330.88 1321.22 327.31C1317.38 327.03 1313.29 326.91 1308.97 326.95C1303.43 327 1297.8 326.81 1292.3 327.15C1256.77 329.377 1224.3 339.217 1194.89 356.67C1151.06 382.68 1118.85 425.33 1111.97 476.38C1111.29 481.447 1110.98 486.403 1111.06 491.25C1111.15 497.68 1110.88 504.33 1111.67 510.95C1120.62 585.93 1182.58 639.97 1253.62 656.78C1283.86 663.933 1314.24 664.83 1344.75 659.47C1385.97 652.223 1421.54 634.543 1451.47 606.43C1454.08 603.977 1456.41 601.463 1458.45 598.89C1458.55 598.76 1458.7 598.673 1458.86 598.647C1459.02 598.621 1459.19 598.658 1459.33 598.75L1580.06 678.65C1580.17 678.722 1580.26 678.818 1580.33 678.93C1580.4 679.041 1580.44 679.167 1580.46 679.298C1580.47 679.428 1580.46 679.561 1580.42 679.685C1580.37 679.81 1580.31 679.924 1580.22 680.02C1578.76 681.58 1577.24 683.207 1575.66 684.9C1508.81 756.33 1413.37 793.18 1316.61 795.43C1281.26 796.25 1246.77 792.59 1213.15 784.45C1106.57 758.66 1009.28 685.51 975.725 577.75C973.625 570.997 971.919 564.583 970.605 558.51C966.472 539.377 964.422 521.853 964.456 505.94C964.476 494.08 964.459 482.263 964.406 470.49C964.386 466.35 963.175 462.2 961.995 458.57C952.055 427.917 935.349 402.457 911.875 382.19C886.005 359.84 852.285 345.16 817.535 342.63C782.429 340.077 750.029 347.517 720.336 364.95C697.909 378.117 679.509 395.787 665.135 417.96C650.309 440.827 641.669 466.497 639.216 494.97C638.642 501.65 638.532 508.297 638.885 514.91C641.805 568.99 669.656 617.22 714.956 646.44C744.266 665.35 777.796 673.96 812.826 672.35C824.452 671.817 835.652 670.073 846.425 667.12C901.555 652 944.275 611.25 961.695 556.85C961.762 556.637 961.882 556.457 962.055 556.31C962.106 556.265 962.168 556.234 962.235 556.22C962.302 556.206 962.371 556.21 962.436 556.231C962.501 556.253 962.559 556.29 962.604 556.341C962.65 556.392 962.681 556.453 962.695 556.52C969.922 589.233 982.559 619.523 1000.61 647.39C1028.2 689.98 1066.09 724.87 1110.07 750.52C1110.79 750.933 1111.14 751.553 1111.14 752.38C1111.12 757.593 1111.11 762.817 1111.11 768.05C1111.11 769.83 1110.65 771.87 1110.2 773.59C1099.45 814.57 1078.73 853.1 1050.48 885.34C1044.1 892.63 1037.32 900.06 1030.32 906.49C1025.44 910.96 1020.7 915.48 1015.58 919.74C957.455 968.02 884.866 995.27 808.956 999.72C803.742 1000.03 798.465 1000.23 793.125 1000.34C785.465 1000.51 777.652 1000.41 769.685 1000.04C720.225 997.793 673.752 986.423 630.266 965.93C595.712 949.643 564.655 927.957 537.095 900.87C533.825 897.66 530.785 894.14 527.735 890.83C510.002 871.603 494.999 850.06 482.725 826.2C482.645 826.042 482.607 825.866 482.614 825.689C482.621 825.512 482.673 825.34 482.765 825.189C482.857 825.038 482.986 824.912 483.141 824.825C483.295 824.738 483.468 824.691 483.646 824.69C537.392 824.65 591.089 824.653 644.735 824.7C645.622 824.7 646.419 824.997 647.125 825.59C680.659 853.71 718.606 870.133 760.966 874.86C772.216 876.12 784.845 875.92 796.365 875.67C822.845 875.103 848.189 871.033 872.396 863.46C885.336 859.413 897.586 853.827 909.146 846.7C936.972 829.54 955.189 805.123 963.795 773.45C964.375 771.323 964.636 768.313 964.576 764.42C964.362 750.74 964.352 737.31 964.545 724.13C964.565 722.937 964.135 722.74 963.255 723.54C935.149 749.087 903.555 768.423 868.475 781.55C765.465 820.12 648.735 797.41 568.175 723.29C527.582 685.943 499.579 640.603 484.165 587.27C482.232 580.583 480.615 573.97 479.315 567.43C476.429 552.937 474.702 540.953 474.135 531.48C473.815 526.173 473.489 520.43 473.155 514.25C472.605 503.98 473.515 493.44 474.155 483.27C474.595 476.37 475.559 468.437 477.046 459.47C477.379 457.457 477.189 455.283 476.475 452.95C467.015 422.19 449.415 394.51 424.965 374.05C396.825 350.51 364.892 337.503 329.165 335.03C240.396 328.88 162.655 395.1 153.825 483.45C153.035 491.38 152.475 499.42 153.115 507.28C153.595 513.12 153.815 518.98 154.775 524.67C161.722 565.957 180.885 599.823 212.265 626.27C237.239 647.323 266.159 659.787 299.025 663.66C303.545 664.193 308.549 664.623 314.035 664.95C319.645 665.29 325.645 664.73 331.385 664.26C392.195 659.32 444.005 621.94 469.155 566.38C469.255 566.16 469.299 565.933 469.285 565.7C469.265 565.18 469.409 564.7 469.715 564.26C470.462 563.18 470.969 563.283 471.235 564.57C482.322 618.743 505.942 666.153 542.095 706.8C564.075 731.513 589.972 752.34 619.785 769.28C624.479 771.947 629.179 774.28 633.885 776.28C634.101 776.371 634.295 776.509 634.452 776.683C634.609 776.858 634.727 777.065 634.795 777.29C635.469 779.51 635.589 781.79 635.156 784.13C635.082 784.557 634.829 784.77 634.396 784.77L477.365 784.75C476.652 784.75 476.299 784.393 476.305 783.68C476.399 766.627 476.379 749.697 476.245 732.89C476.235 732.03 476.585 731.02 476.565 730.18Z"
        fill="white" />
</svg>