<svg width="1582" height="1116" viewBox="0 0 1582 1116" fill="none" xmlns="http://www.w3.org/2000/svg">
    <g clip-path="url(#clip0_166_4)">
        <path
            d="M477.19 730.23C477.17 729.11 476.72 728.893 475.84 729.58C428.37 766.72 372.42 788.78 312.76 792.5C307.533 792.827 302.393 793.043 297.34 793.15C287.42 793.37 276.333 792.883 264.08 791.69C193.61 784.85 127.99 752.16 79.57 700.41C33.67 651.35 6.15999 588.33 1.50999 521.19C1.18332 516.51 0.929992 511.753 0.749992 506.92C0.399992 497.82 0.829993 488.95 1.44999 480.15C5.08999 428.577 21.2467 381.16 49.92 337.9C58.08 325.58 67.07 314.093 76.89 303.44C120.143 256.52 172.847 226.573 235 213.6C246.98 211.093 259.787 209.38 273.42 208.46C282.15 207.87 291.43 207.97 300.49 207.95C304.103 207.943 307.71 208.06 311.31 208.3C372.63 212.34 427.52 233.43 475.98 271.57C476.34 271.85 476.617 271.783 476.81 271.37C476.917 271.143 476.97 270.9 476.97 270.64C476.977 180.713 476.98 90.9634 476.98 1.39005C476.98 0.503382 477.423 0.0600491 478.31 0.0600491L634.51 0.0500488C635.45 0.0500488 635.923 0.520049 635.93 1.46005C635.99 79.3934 635.98 158.523 635.9 238.85C635.893 240.97 636.007 242.947 636.24 244.78C636.254 244.887 636.297 244.988 636.366 245.072C636.435 245.155 636.526 245.217 636.629 245.251C636.731 245.284 636.841 245.288 636.946 245.261C637.051 245.234 637.146 245.179 637.22 245.1C637.853 244.413 638.593 243.87 639.44 243.47C698.493 215.803 759.993 208.103 823.94 220.37C830.113 221.557 836.567 223.063 843.3 224.89C883.553 235.81 920.193 254.837 953.22 281.97C956.973 285.057 960.66 288.167 964.28 291.3C965.147 292.053 965.507 291.86 965.36 290.72C965.2 289.433 965.12 288.163 965.12 286.91C965.027 267.623 965.01 246.037 965.07 222.15C965.07 221.63 965.33 221.37 965.85 221.37H1110.93C1111.14 221.37 1111.35 221.455 1111.5 221.607C1111.65 221.759 1111.73 221.965 1111.73 222.18L1111.74 261.77C1111.74 261.876 1111.77 261.98 1111.82 262.072C1111.87 262.163 1111.95 262.239 1112.04 262.291C1112.13 262.344 1112.24 262.37 1112.34 262.368C1112.45 262.366 1112.55 262.336 1112.64 262.28C1125.5 254.647 1138.77 247.87 1152.46 241.95C1194.85 223.617 1239.68 213.227 1286.95 210.78C1349.55 207.54 1412.68 218.81 1469.62 244.82C1507.67 262.2 1541.39 285.567 1570.77 314.92C1574.33 318.48 1577.24 322.46 1581 325.82C1581.08 325.894 1581.14 325.986 1581.18 326.088C1581.22 326.19 1581.23 326.3 1581.22 326.408C1581.21 326.516 1581.17 326.619 1581.11 326.708C1581.05 326.797 1580.97 326.87 1580.87 326.92L1460.18 390.86C1459.84 391.04 1459.54 390.99 1459.27 390.71C1457.64 389.017 1455.99 387.327 1454.31 385.64C1419.32 350.54 1371.62 330.93 1321.84 327.36C1318 327.08 1313.92 326.96 1309.59 327C1304.05 327.05 1298.42 326.86 1292.92 327.2C1257.39 329.427 1224.92 339.267 1195.51 356.72C1151.68 382.73 1119.47 425.38 1112.59 476.43C1111.91 481.497 1111.61 486.453 1111.68 491.3C1111.77 497.73 1111.5 504.38 1112.29 511C1121.24 585.98 1183.2 640.02 1254.24 656.83C1284.49 663.983 1314.86 664.88 1345.37 659.52C1386.59 652.273 1422.16 634.593 1452.09 606.48C1454.7 604.027 1457.03 601.513 1459.07 598.94C1459.17 598.81 1459.32 598.723 1459.49 598.697C1459.65 598.671 1459.81 598.708 1459.95 598.8L1580.68 678.7C1580.79 678.772 1580.88 678.868 1580.95 678.98C1581.02 679.092 1581.06 679.217 1581.08 679.348C1581.09 679.478 1581.08 679.611 1581.04 679.735C1581 679.86 1580.93 679.974 1580.84 680.07C1579.39 681.63 1577.87 683.257 1576.28 684.95C1509.43 756.38 1413.99 793.23 1317.23 795.48C1281.88 796.3 1247.4 792.64 1213.77 784.5C1107.19 758.71 1009.9 685.56 976.35 577.8C974.25 571.047 972.543 564.633 971.23 558.56C967.097 539.427 965.047 521.903 965.08 505.99C965.1 494.13 965.083 482.313 965.03 470.54C965.01 466.4 963.8 462.25 962.62 458.62C952.68 427.967 935.973 402.507 912.5 382.24C886.63 359.89 852.91 345.21 818.16 342.68C783.053 340.127 750.653 347.567 720.96 365C698.533 378.167 680.133 395.837 665.76 418.01C650.933 440.877 642.293 466.547 639.84 495.02C639.267 501.7 639.157 508.347 639.51 514.96C642.43 569.04 670.28 617.27 715.58 646.49C744.89 665.4 778.42 674.01 813.45 672.4C825.077 671.867 836.277 670.123 847.05 667.17C902.18 652.05 944.9 611.3 962.32 556.9C962.387 556.687 962.507 556.507 962.68 556.36C962.731 556.315 962.793 556.284 962.86 556.27C962.926 556.256 962.996 556.26 963.06 556.281C963.125 556.303 963.183 556.34 963.229 556.391C963.274 556.442 963.306 556.503 963.32 556.57C970.547 589.283 983.183 619.573 1001.23 647.44C1028.82 690.03 1066.71 724.92 1110.69 750.57C1111.41 750.983 1111.77 751.603 1111.76 752.43C1111.75 757.643 1111.74 762.867 1111.73 768.1C1111.73 769.88 1111.27 771.92 1110.82 773.64C1100.07 814.62 1079.35 853.15 1051.1 885.39C1044.72 892.68 1037.94 900.11 1030.94 906.54C1026.06 911.01 1021.32 915.53 1016.2 919.79C958.08 968.07 885.49 995.32 809.58 999.77C804.367 1000.08 799.09 1000.28 793.75 1000.39C786.09 1000.56 778.277 1000.46 770.31 1000.09C720.85 997.843 674.377 986.473 630.89 965.98C596.337 949.693 565.28 928.007 537.72 900.92C534.45 897.71 531.41 894.19 528.36 890.88C510.627 871.653 495.623 850.11 483.35 826.25C483.27 826.092 483.232 825.916 483.239 825.739C483.245 825.562 483.297 825.39 483.39 825.239C483.482 825.088 483.611 824.962 483.765 824.875C483.919 824.788 484.093 824.741 484.27 824.74C538.017 824.7 591.713 824.703 645.36 824.75C646.247 824.75 647.043 825.047 647.75 825.64C681.283 853.76 719.23 870.183 761.59 874.91C772.84 876.17 785.47 875.97 796.99 875.72C823.47 875.153 848.813 871.083 873.02 863.51C885.96 859.463 898.21 853.877 909.77 846.75C937.597 829.59 955.813 805.173 964.42 773.5C965 771.373 965.26 768.363 965.2 764.47C964.987 750.79 964.977 737.36 965.17 724.18C965.19 722.987 964.76 722.79 963.88 723.59C935.773 749.137 904.18 768.473 869.1 781.6C766.09 820.17 649.36 797.46 568.8 723.34C528.207 685.993 500.203 640.653 484.79 587.32C482.857 580.633 481.24 574.02 479.94 567.48C477.053 552.987 475.327 541.003 474.76 531.53C474.44 526.223 474.113 520.48 473.78 514.3C473.23 504.03 474.14 493.49 474.78 483.32C475.22 476.42 476.183 468.487 477.67 459.52C478.003 457.507 477.813 455.333 477.1 453C467.64 422.24 450.04 394.56 425.59 374.1C397.45 350.56 365.517 337.553 329.79 335.08C241.02 328.93 163.28 395.15 154.45 483.5C153.66 491.43 153.1 499.47 153.74 507.33C154.22 513.17 154.44 519.03 155.4 524.72C162.347 566.007 181.51 599.873 212.89 626.32C237.863 647.373 266.783 659.837 299.65 663.71C304.17 664.243 309.173 664.673 314.66 665C320.27 665.34 326.27 664.78 332.01 664.31C392.82 659.37 444.63 621.99 469.78 566.43C469.88 566.21 469.923 565.983 469.91 565.75C469.89 565.23 470.033 564.75 470.34 564.31C471.087 563.23 471.593 563.333 471.86 564.62C482.947 618.793 506.567 666.203 542.72 706.85C564.7 731.563 590.597 752.39 620.41 769.33C625.103 771.997 629.803 774.33 634.51 776.33C634.726 776.421 634.919 776.559 635.077 776.733C635.234 776.908 635.351 777.115 635.42 777.34C636.093 779.56 636.213 781.84 635.78 784.18C635.707 784.607 635.453 784.82 635.02 784.82L477.99 784.8C477.277 784.8 476.923 784.443 476.93 783.73C477.023 766.677 477.003 749.747 476.87 732.94C476.86 732.08 477.21 731.07 477.19 730.23Z"
            fill="black" />
        <path
            d="M1061.86 1060.2C1058.94 1060.25 1056.02 1060.25 1053.1 1060.19C1046.17 1060.07 1044.12 1064.89 1040.26 1069.26C1039.67 1069.93 1038.95 1070.17 1038.1 1069.98C1037.75 1069.91 1037.61 1069.69 1037.68 1069.33C1038.83 1063.68 1040.19 1058.25 1041.76 1053.04C1041.81 1052.86 1041.92 1052.69 1042.06 1052.56C1042.2 1052.44 1042.38 1052.35 1042.57 1052.32C1042.76 1052.28 1042.95 1052.3 1043.13 1052.37C1043.31 1052.44 1043.47 1052.56 1043.59 1052.71C1044.91 1054.44 1046.21 1056.74 1048.75 1056.74C1062.41 1056.74 1075.83 1056.74 1089.01 1056.74C1089.42 1056.74 1089.7 1056.56 1089.86 1056.19C1090.51 1054.68 1091.38 1051.92 1093.54 1052.34C1093.9 1052.41 1094.09 1052.62 1094.11 1052.99C1094.48 1058.9 1094.31 1064.64 1093.6 1070.19C1093.59 1070.26 1093.57 1070.33 1093.53 1070.39C1093.49 1070.46 1093.44 1070.51 1093.38 1070.55C1093.31 1070.59 1093.24 1070.61 1093.17 1070.62C1093.1 1070.63 1093.02 1070.62 1092.95 1070.6C1091.15 1070.01 1090.71 1067.1 1090.29 1065.49C1089.42 1062.2 1087.26 1060.51 1083.81 1060.4C1079.61 1060.26 1075.45 1060.19 1071.34 1060.19C1071.22 1060.19 1071.1 1060.23 1071 1060.32C1070.91 1060.4 1070.86 1060.52 1070.85 1060.64C1070.43 1067.25 1071.26 1073.99 1071.28 1080.52C1071.31 1089.39 1071.29 1098.26 1071.23 1107.15C1071.21 1109.28 1072.97 1110.01 1074.69 1110.45C1076.74 1110.96 1078.76 1111.46 1080.73 1111.94C1080.94 1111.99 1081.13 1112.11 1081.26 1112.29C1081.39 1112.46 1081.46 1112.67 1081.46 1112.89C1081.45 1113.6 1081.08 1113.97 1080.35 1114.01C1077.97 1114.14 1075.58 1114.04 1073.19 1113.73C1069.77 1113.28 1066.34 1113.28 1062.91 1113.74C1059.45 1114.2 1056 1114.1 1052.56 1114.03C1052.46 1114.03 1052.35 1114 1052.26 1113.95C1052.17 1113.89 1052.1 1113.82 1052.04 1113.73C1051.99 1113.64 1051.96 1113.54 1051.95 1113.43C1051.95 1113.33 1051.97 1113.22 1052.02 1113.13C1052.53 1112.12 1053.38 1111.49 1054.57 1111.25C1056.56 1110.85 1058.48 1110.34 1060.33 1109.72C1061.99 1109.17 1062.82 1108.07 1062.82 1106.43C1062.8 1091.28 1062.79 1076.18 1062.8 1061.13C1062.8 1061.01 1062.78 1060.89 1062.73 1060.77C1062.68 1060.66 1062.61 1060.56 1062.52 1060.47C1062.44 1060.38 1062.33 1060.31 1062.22 1060.27C1062.1 1060.22 1061.98 1060.2 1061.86 1060.2Z"
            fill="black" />
        <path
            d="M11.7902 1062.16C11.7502 1056.57 7.4102 1056.83 3.4602 1055.78C3.36278 1055.75 3.27168 1055.71 3.19234 1055.65C3.11301 1055.58 3.04709 1055.51 2.99853 1055.42C2.94997 1055.33 2.91977 1055.23 2.90975 1055.13C2.89972 1055.04 2.91008 1054.94 2.9402 1054.84C3.2302 1053.88 3.8502 1053.31 4.9002 1053.25C7.6502 1053.1 10.3702 1053.79 13.0902 1053.84C20.0235 1053.97 27.3335 1053.96 35.0202 1053.79C41.6702 1053.64 49.2002 1055.22 54.5802 1058.67C64.4602 1065.02 68.9602 1074.52 68.0802 1087.15C67.1402 1100.63 57.3902 1111.23 43.9602 1112.97C38.7902 1113.64 32.6002 1114.35 27.0002 1113.61C26.0135 1113.48 25.0269 1113.41 24.0402 1113.42C16.8869 1113.49 9.64686 1113.5 2.3202 1113.45C2.22847 1113.45 2.13806 1113.43 2.05568 1113.39C1.9733 1113.35 1.90108 1113.29 1.84438 1113.22C1.78769 1113.14 1.74797 1113.06 1.72821 1112.97C1.70844 1112.88 1.70912 1112.78 1.7302 1112.69C1.9202 1111.88 2.6702 1111.31 3.4602 1111.12C5.6802 1110.61 7.81353 1110.02 9.8602 1109.35C10.154 1109.25 10.414 1109.07 10.6103 1108.83C10.8066 1108.59 10.9313 1108.31 10.9702 1108C11.3202 1105.27 11.8202 1102.49 11.8302 1099.74C11.8769 1087.01 11.8635 1074.49 11.7902 1062.16ZM56.5902 1094.7C58.9302 1089.12 59.1802 1082.96 57.3402 1076.23C53.5502 1062.32 40.9602 1057.17 27.3802 1056.67C25.2102 1056.59 19.7302 1056.8 19.7302 1059.96C19.7235 1068.27 19.7269 1076.72 19.7402 1085.31C19.7502 1090.01 20.5202 1094.71 20.2402 1099.36C19.9202 1104.55 21.2202 1108.51 26.3602 1110.03C38.3502 1113.56 51.6302 1106.56 56.5902 1094.7Z"
            fill="black" />
        <path
            d="M1219.16 1072.83C1223.63 1061.81 1233.4 1053.88 1245.76 1053.26C1250.33 1053.03 1254.41 1053.16 1257.98 1053.63C1260.56 1053.97 1264.59 1055.03 1266.75 1056.86C1267.08 1057.14 1267.27 1057.49 1267.32 1057.91C1267.65 1060.6 1268.47 1064.08 1267.64 1066.7C1267.58 1066.88 1267.47 1067.04 1267.32 1067.16C1267.17 1067.28 1266.99 1067.35 1266.8 1067.36C1266.61 1067.38 1266.43 1067.33 1266.26 1067.24C1266.1 1067.14 1265.96 1067 1265.88 1066.83C1262.09 1059.3 1255.8 1054.75 1247.02 1055.86C1228.7 1058.18 1223.85 1080.2 1227.71 1094.67C1230.07 1103.51 1234.59 1108.84 1243.2 1111.15C1246.15 1111.94 1249.43 1111.89 1253.06 1110.99C1259.16 1109.47 1263.72 1105.97 1266.75 1100.5C1267.12 1099.83 1267.7 1099.53 1268.48 1099.61C1268.6 1099.62 1268.71 1099.66 1268.81 1099.71C1268.91 1099.77 1269 1099.85 1269.07 1099.94C1269.14 1100.03 1269.2 1100.14 1269.22 1100.25C1269.25 1100.37 1269.26 1100.48 1269.24 1100.6C1268.66 1104.26 1267.76 1107.86 1266.53 1111.41C1266.4 1111.78 1266.14 1112.02 1265.77 1112.14C1259.35 1114.17 1253.59 1114.08 1247.03 1114.16C1243.62 1114.2 1240.53 1113.75 1237.74 1112.81C1227.94 1109.5 1221.09 1104.25 1218.36 1094.11C1216.28 1086.37 1216.55 1079.28 1219.16 1072.83Z"
            fill="black" />
        <path
            d="M570.16 1101.21C561.2 1112.6 546.81 1116.23 533.14 1112.76C527.267 1111.27 522.617 1108.64 519.19 1104.88C514.977 1100.26 512.45 1095.39 511.61 1090.26C510.79 1085.22 510.72 1078.44 512.73 1073.44C516.53 1064.01 523.094 1058.03 532.42 1055.51C542.42 1052.82 553.65 1053.3 562.02 1058.65C567.927 1062.42 571.917 1067.54 573.99 1074.01C576.6 1082.15 575.76 1094.11 570.16 1101.21ZM565.57 1092.65C568.19 1077.84 565.18 1061.59 548.92 1056.95C539.59 1054.29 529.11 1058.18 524.34 1066.83C519.067 1076.38 518.444 1086.27 522.47 1096.51C526.13 1105.83 534.68 1112.7 544.85 1111.68C556.15 1110.53 563.65 1103.54 565.57 1092.65Z"
            fill="black" />
        <path
            d="M639.31 1057.32C639.05 1057.36 638.812 1057.48 638.636 1057.68C638.461 1057.87 638.36 1058.12 638.35 1058.38C638.23 1061.71 638.29 1064.97 637.92 1068.31C637.63 1070.97 638.26 1073.55 638.25 1076.23C638.22 1081.58 638.13 1086.89 638.52 1092.24C638.88 1097.32 638.93 1102.55 638.67 1107.93C638.651 1108.36 638.783 1108.78 639.044 1109.12C639.306 1109.46 639.679 1109.7 640.1 1109.8C642.307 1110.31 644.577 1110.87 646.91 1111.49C647.59 1111.67 648.024 1112.05 648.21 1112.62C648.269 1112.8 648.28 1113 648.241 1113.19C648.203 1113.38 648.116 1113.56 647.99 1113.7C647.863 1113.85 647.701 1113.96 647.519 1114.03C647.337 1114.09 647.141 1114.11 646.95 1114.08C644.397 1113.68 641.914 1113.48 639.5 1113.48C633.934 1113.47 628.514 1113.47 623.24 1113.49C623.151 1113.49 623.063 1113.47 622.986 1113.42C622.908 1113.38 622.843 1113.32 622.797 1113.24C622.75 1113.16 622.725 1113.08 622.722 1112.99C622.719 1112.9 622.739 1112.81 622.78 1112.73L623.08 1112.14C623.354 1111.62 623.784 1111.31 624.37 1111.22L628.53 1110.56C629.013 1110.48 629.453 1110.24 629.772 1109.86C630.09 1109.49 630.267 1109.02 630.27 1108.53C630.33 1098.59 630.53 1088.47 629.94 1078.4C629.7 1074.25 629.647 1069.94 629.78 1065.47C629.834 1063.7 629.65 1061.94 629.23 1060.17C629.162 1059.88 629.026 1059.62 628.833 1059.39C628.64 1059.17 628.395 1058.99 628.12 1058.88C625.92 1057.99 623.637 1057.4 621.27 1057.12C620.597 1057.04 620.244 1056.66 620.21 1055.99C620.204 1055.84 620.224 1055.7 620.27 1055.57C620.375 1055.26 620.574 1054.99 620.838 1054.8C621.102 1054.62 621.418 1054.52 621.74 1054.52C628.45 1054.6 635.21 1054.72 641.87 1054.09C648.4 1053.48 657.75 1053.15 663.08 1057.86C666.814 1061.15 668.694 1065.51 668.72 1070.93C668.76 1080.12 662.83 1087.29 653.71 1088.58C650.05 1089.1 643.63 1088.5 641.27 1085C641.216 1084.92 641.185 1084.82 641.184 1084.72C641.182 1084.63 641.208 1084.53 641.26 1084.45C641.312 1084.36 641.387 1084.3 641.475 1084.25C641.564 1084.21 641.663 1084.2 641.76 1084.21C645.1 1084.7 649.26 1085.45 652.21 1083.86C659.37 1080 662.97 1071.28 657.8 1064.25C655.86 1061.63 654.01 1059.35 650.71 1058.38C646.677 1057.2 642.877 1056.85 639.31 1057.32Z"
            fill="black" />
        <path
            d="M1362.1 1056.39C1364.4 1057.28 1366.38 1058.37 1368.03 1059.68C1374.93 1065.14 1379.28 1071.61 1379.72 1080.74C1380.18 1090.08 1378.72 1097.68 1371.81 1104.58C1367.36 1109.02 1361.68 1111.93 1354.76 1113.3C1348.15 1114.61 1341.54 1114.16 1334.91 1111.93C1323.95 1108.25 1316.55 1098.06 1315.58 1086.94C1314.44 1073.84 1321.4 1061.04 1334.09 1056.48C1343.81 1052.99 1353.15 1052.96 1362.1 1056.39ZM1337.75 1058.39C1335.15 1059.47 1332.88 1061.25 1330.95 1063.74C1321.45 1075.95 1322.21 1099.05 1336.03 1108.15C1340.08 1110.82 1344.27 1112.01 1348.58 1111.71C1355.84 1111.2 1361.4 1108.54 1365.26 1103.73C1368.24 1100.02 1370.07 1095.04 1370.75 1088.81C1371.42 1082.7 1370.95 1077.1 1369.34 1072C1367.61 1066.49 1364.13 1062.21 1358.9 1059.16C1352.19 1055.26 1344.83 1055.42 1337.75 1058.39Z"
            fill="black" />
        <path
            d="M1443.46 1085.21C1443.24 1085.29 1443.06 1085.44 1442.93 1085.63C1442.79 1085.82 1442.72 1086.04 1442.72 1086.27C1442.65 1092.66 1442.66 1098.89 1442.76 1104.96C1442.83 1109.58 1447.56 1110.29 1451.06 1111.09C1451.24 1111.13 1451.4 1111.23 1451.52 1111.37C1451.64 1111.52 1451.7 1111.7 1451.7 1111.88C1451.71 1112.5 1451.46 1112.81 1450.96 1112.82C1443.09 1112.87 1434.62 1112.89 1425.53 1112.9C1425.06 1112.9 1424.88 1112.67 1425.01 1112.22L1425.15 1111.72C1425.19 1111.57 1425.27 1111.44 1425.38 1111.34C1425.49 1111.23 1425.63 1111.16 1425.78 1111.13C1427.57 1110.79 1429.41 1110.5 1431.31 1110.27C1433.45 1110.01 1434.25 1108.48 1434.25 1106.51C1434.25 1102.85 1434.77 1099.31 1434.76 1095.67C1434.74 1085.68 1434.74 1075.58 1434.77 1065.35C1434.77 1063 1434.87 1058.81 1431.86 1058.26C1429.95 1057.91 1427.98 1057.49 1425.97 1056.99C1425.73 1056.93 1425.51 1056.79 1425.35 1056.6C1425.18 1056.41 1425.08 1056.17 1425.06 1055.92C1425.01 1055.31 1425.31 1054.97 1425.98 1054.9C1431.16 1054.33 1436.36 1054.48 1441.48 1054.02C1444.5 1053.75 1448.35 1053.81 1453.02 1054.2C1457.85 1054.61 1461.36 1055.48 1463.53 1056.82C1468.32 1059.79 1470.3 1064.66 1469.45 1071.43C1468.75 1077.04 1465.05 1080.26 1460.09 1082.2C1459.91 1082.27 1459.74 1082.39 1459.6 1082.53C1459.46 1082.67 1459.36 1082.85 1459.29 1083.03C1459.23 1083.22 1459.2 1083.42 1459.22 1083.62C1459.24 1083.82 1459.3 1084.01 1459.4 1084.18C1463.04 1090.54 1466.84 1096.99 1470.79 1103.52C1473.52 1108.02 1477.42 1110.54 1482.51 1111.08C1482.67 1111.1 1482.82 1111.17 1482.93 1111.3C1483.03 1111.42 1483.09 1111.59 1483.08 1111.75C1483.04 1112.38 1482.69 1112.74 1482.03 1112.83C1477.18 1113.52 1472.36 1113.71 1467.57 1113.39C1467.24 1113.37 1466.93 1113.27 1466.65 1113.09C1466.37 1112.92 1466.14 1112.68 1465.98 1112.4C1461.05 1103.63 1456.51 1095.5 1452.36 1087.99C1450.46 1084.55 1447.49 1083.62 1443.46 1085.21ZM1442.6 1058.37L1443.06 1080.61C1443.06 1080.75 1443.1 1080.9 1443.15 1081.03C1443.21 1081.16 1443.3 1081.28 1443.4 1081.38C1443.51 1081.48 1443.63 1081.56 1443.77 1081.61C1443.9 1081.66 1444.05 1081.68 1444.19 1081.68L1446.55 1081.63C1450.43 1081.55 1454.11 1080.19 1456.81 1077.86C1459.5 1075.53 1460.98 1072.42 1460.91 1069.2V1069.02C1460.84 1065.8 1459.24 1062.75 1456.45 1060.54C1453.66 1058.32 1449.92 1057.12 1446.04 1057.2L1443.68 1057.25C1443.54 1057.25 1443.39 1057.28 1443.26 1057.34C1443.13 1057.4 1443.01 1057.48 1442.91 1057.59C1442.81 1057.69 1442.73 1057.81 1442.68 1057.95C1442.62 1058.08 1442.6 1058.23 1442.6 1058.37Z"
            fill="black" />
        <path
            d="M1539.81 1058.37C1539.63 1066.06 1539.71 1073.95 1540.06 1082.05C1540.33 1088.21 1540.46 1096.44 1540.46 1106.75C1540.46 1108.58 1541.32 1109.7 1543.04 1110.13C1545.21 1110.68 1547.18 1111.03 1548.97 1111.19C1549.81 1111.27 1550.24 1111.73 1550.27 1112.58C1550.28 1112.86 1550.22 1113.13 1550.11 1113.4C1550.01 1113.64 1549.84 1113.84 1549.61 1113.96C1549.39 1114.09 1549.13 1114.13 1548.88 1114.09C1546.53 1113.71 1544.44 1113.51 1542.6 1113.49C1537.3 1113.44 1531.37 1113.45 1524.8 1113.52C1524.71 1113.52 1524.61 1113.5 1524.53 1113.45C1524.44 1113.41 1524.37 1113.35 1524.31 1113.27C1524.26 1113.2 1524.22 1113.11 1524.21 1113.01C1524.2 1112.92 1524.21 1112.83 1524.24 1112.74C1524.53 1111.98 1525.06 1111.51 1525.84 1111.34C1527.35 1111.01 1528.89 1110.71 1530.47 1110.44C1530.9 1110.36 1531.29 1110.15 1531.59 1109.84C1531.88 1109.52 1532.07 1109.11 1532.12 1108.68C1533.13 1099.76 1531.74 1090.56 1531.84 1081.96C1531.93 1074.91 1532.22 1067.81 1531.39 1061.25C1531.2 1059.7 1530.12 1058.75 1528.7 1058.34C1526.57 1057.73 1524.45 1057.15 1522.34 1056.61C1522.22 1056.58 1522.11 1056.51 1522.03 1056.42C1521.94 1056.33 1521.88 1056.21 1521.86 1056.09C1521.83 1055.97 1521.85 1055.84 1521.89 1055.72C1521.93 1055.61 1522.01 1055.51 1522.11 1055.43C1522.92 1054.83 1523.91 1054.54 1525.06 1054.56C1531.28 1054.68 1537.48 1054.69 1543.65 1054.1C1553.74 1053.15 1566.18 1053.44 1569.74 1065.39C1574.08 1079.99 1561.77 1091.91 1547.27 1087.88C1545.5 1087.39 1544.23 1086.42 1543.45 1084.97C1543.39 1084.86 1543.36 1084.73 1543.37 1084.6C1543.38 1084.47 1543.43 1084.34 1543.51 1084.24C1543.59 1084.14 1543.7 1084.07 1543.83 1084.03C1543.95 1083.99 1544.09 1083.99 1544.21 1084.03C1549.82 1085.78 1554.52 1084.73 1558.29 1080.86C1561.99 1077.05 1563.18 1071.3 1560.95 1066.58C1559.54 1063.59 1556.97 1060.17 1553.81 1058.9C1549.54 1057.18 1545.12 1056.71 1540.55 1057.5C1540.07 1057.59 1539.82 1057.88 1539.81 1058.37Z"
            fill="black" />
        <path
            d="M725.09 1065.09C724.94 1067.03 724.48 1069.06 724.57 1070.99C724.8 1075.81 724.19 1080.5 724.21 1085.33C724.223 1092.21 724.273 1098.44 724.36 1104.01C724.48 1111.76 728.83 1110.47 734.45 1110.94C734.628 1110.95 734.801 1111.01 734.959 1111.09C735.116 1111.17 735.255 1111.29 735.366 1111.43C735.478 1111.56 735.56 1111.72 735.607 1111.89C735.654 1112.07 735.665 1112.24 735.64 1112.42L735.59 1112.78C735.555 1113.02 735.426 1113.24 735.231 1113.39C735.036 1113.53 734.791 1113.59 734.55 1113.56C727.15 1112.47 719.8 1112.78 712.25 1112.66C711.517 1112.65 711.02 1112.55 710.76 1112.38C710.636 1112.29 710.54 1112.17 710.483 1112.03C710.426 1111.89 710.411 1111.74 710.44 1111.59C710.468 1111.44 710.539 1111.31 710.644 1111.2C710.749 1111.09 710.883 1111.01 711.03 1110.98C713.35 1110.41 715.723 1109.93 718.15 1109.52C718.758 1109.42 719.308 1109.1 719.696 1108.62C720.085 1108.14 720.285 1107.54 720.26 1106.93C720.16 1104.56 720.86 1102.35 720.76 1099.97C720.59 1095.93 721.27 1092.04 721.41 1088.02C721.61 1082.39 721.887 1076.64 722.24 1070.78C722.46 1067.09 721.72 1063.66 723.16 1060.14C723.243 1059.94 723.278 1059.72 723.263 1059.5C723.249 1059.28 723.185 1059.07 723.076 1058.88C722.967 1058.68 722.817 1058.52 722.635 1058.4C722.454 1058.27 722.247 1058.19 722.03 1058.16L713.14 1056.79C712.36 1056.67 711.977 1056.22 711.99 1055.43C711.99 1055.31 712.007 1055.19 712.04 1055.08C712.247 1054.41 712.697 1054.11 713.39 1054.17C718.33 1054.58 723.533 1054.65 729 1054.38C729.38 1054.36 729.758 1054.45 730.084 1054.65C730.41 1054.85 730.67 1055.14 730.83 1055.49C737.237 1069.42 743.55 1083.4 749.77 1097.41C749.897 1097.7 750.11 1097.91 750.41 1098.04C750.628 1098.13 750.873 1098.13 751.093 1098.05C751.313 1097.96 751.492 1097.79 751.59 1097.58C757.783 1084.2 763.493 1070.12 768.72 1055.34C768.913 1054.79 769.3 1054.52 769.88 1054.51C775.187 1054.41 780.37 1054.46 785.43 1054.66C787.717 1054.75 787.97 1055.49 786.19 1056.9C785.97 1057.07 785.407 1057.23 784.5 1057.38C782.613 1057.7 780.723 1058 778.83 1058.29C777.377 1058.52 776.613 1059.5 776.54 1061.23C776.253 1067.78 776.263 1074.49 776.57 1081.34C776.83 1087.05 776.953 1091.32 776.94 1094.16C776.927 1098.61 776.903 1102.89 776.87 1107C776.84 1110.32 783.37 1110.88 785.77 1111.16C786.523 1111.25 786.937 1111.67 787.01 1112.42C787.023 1112.56 787.027 1112.7 787.02 1112.84C787.013 1113.32 786.77 1113.56 786.29 1113.57C780.74 1113.59 775.32 1112.72 769.89 1112.97C766.797 1113.12 763.72 1113.32 760.66 1113.59C760.537 1113.6 760.414 1113.58 760.299 1113.54C760.185 1113.49 760.083 1113.42 760.001 1113.33C759.92 1113.23 759.861 1113.12 759.829 1113C759.798 1112.89 759.795 1112.76 759.82 1112.64C759.98 1111.9 760.457 1111.42 761.25 1111.19C763.09 1110.67 764.887 1110.15 766.64 1109.63C767.907 1109.26 768.527 1108.39 768.5 1107.03C768.353 1099.78 768.42 1093.62 768.7 1088.55C769.11 1081.19 769 1074.47 769.14 1067.27C769.143 1067.12 769.101 1066.97 769.019 1066.84C768.937 1066.71 768.819 1066.61 768.68 1066.55C768.087 1066.3 767.657 1066.5 767.39 1067.13C760.657 1082.92 754.453 1098.19 748.78 1112.93C748.718 1113.08 748.612 1113.22 748.475 1113.31C748.337 1113.4 748.176 1113.45 748.01 1113.45C747.49 1113.46 747.14 1113.21 746.96 1112.7C740.973 1096.29 734.26 1080.56 726.82 1065.49C726.64 1065.13 726.383 1064.84 726.05 1064.62C725.96 1064.56 725.856 1064.53 725.748 1064.52C725.64 1064.51 725.533 1064.53 725.436 1064.58C725.339 1064.63 725.256 1064.7 725.195 1064.79C725.134 1064.88 725.098 1064.98 725.09 1065.09Z"
            fill="black" />
        <path
            d="M245.76 1101.08C246.18 1102.79 246.744 1102.84 247.45 1101.23C253.464 1087.64 258.437 1073.95 262.37 1060.15C262.457 1059.85 262.43 1059.56 262.29 1059.27C260.75 1056.2 255.42 1056.38 252.36 1056.04C252.134 1056.01 252.04 1055.89 252.08 1055.67L252.13 1055.36C252.15 1055.24 252.21 1055.13 252.301 1055.05C252.392 1054.97 252.508 1054.92 252.63 1054.91C258.797 1054.4 266.137 1054.3 274.65 1054.62C275.124 1054.64 275.56 1054.77 275.96 1055.01C276.084 1055.08 276.183 1055.19 276.242 1055.32C276.301 1055.45 276.318 1055.6 276.291 1055.74C276.263 1055.88 276.193 1056.01 276.089 1056.11C275.985 1056.22 275.853 1056.28 275.71 1056.31C272.6 1056.83 268.64 1057.18 267.28 1060.48C262.254 1072.68 257.407 1084.55 252.74 1096.09C250.49 1101.65 248.57 1107.32 246.36 1112.92C245.247 1115.75 244.08 1115.77 242.86 1112.98C240.08 1106.61 237.61 1099.99 234.83 1093.67C230.317 1083.38 225.644 1072.75 220.81 1061.77C219.15 1058.01 215.69 1056.88 211.91 1056.43C211.808 1056.42 211.71 1056.38 211.622 1056.33C211.533 1056.28 211.457 1056.21 211.397 1056.12C211.337 1056.04 211.295 1055.95 211.273 1055.85C211.251 1055.74 211.25 1055.64 211.27 1055.54C211.397 1054.87 211.79 1054.53 212.45 1054.53C220.27 1054.48 228.19 1054.47 236.21 1054.48C237.47 1054.48 238.51 1054.83 239.33 1055.53C239.75 1055.89 239.687 1056.1 239.14 1056.16C236.4 1056.47 233.714 1056.76 231.08 1057.03C227.56 1057.39 229.25 1061.39 230.07 1063.23C235.684 1075.88 240.727 1087.68 245.2 1098.65C245.52 1099.43 245.56 1100.29 245.76 1101.08Z"
            fill="black" />
        <path
            d="M985.76 1101.49C986.087 1101.4 986.243 1101.18 986.23 1100.84L984.87 1060.49C984.855 1060.06 984.703 1059.65 984.438 1059.31C984.172 1058.97 983.805 1058.72 983.39 1058.6C980.923 1057.88 978.543 1057.48 976.25 1057.41C975.922 1057.4 975.609 1057.27 975.373 1057.04C975.138 1056.81 974.997 1056.5 974.98 1056.17L974.97 1055.83C974.936 1055.12 975.273 1054.73 975.98 1054.66C980.03 1054.25 984.31 1054.97 988.03 1054.72C989.99 1054.59 992.046 1054.49 994.2 1054.44C994.471 1054.43 994.739 1054.51 994.969 1054.65C995.2 1054.79 995.384 1055 995.5 1055.24C995.607 1055.45 995.64 1055.68 995.6 1055.93C995.573 1056.09 995.497 1056.24 995.382 1056.35C995.267 1056.47 995.12 1056.54 994.96 1056.57L990.31 1057.32C989.867 1057.39 989.458 1057.6 989.146 1057.92C988.834 1058.25 988.635 1058.66 988.58 1059.11C988.153 1062.56 988.02 1066.03 988.18 1069.5C988.507 1076.74 988.773 1083.37 988.98 1089.4C989.006 1090.21 989.03 1091 989.05 1091.76C989.243 1098.96 989.32 1106.31 989.28 1113.8C989.277 1114.1 989.188 1114.38 989.025 1114.63C988.861 1114.88 988.63 1115.07 988.359 1115.19C988.089 1115.3 987.79 1115.34 987.501 1115.29C987.211 1115.24 986.943 1115.1 986.73 1114.9C975.3 1104.23 965.25 1092.27 954.63 1080.84C950.517 1076.41 946.66 1072.06 943.06 1067.77C942.77 1067.42 942.363 1067.2 941.92 1067.14C941.2 1067.04 940.837 1067.36 940.83 1068.1C940.77 1072.4 940.85 1076.6 941.07 1080.7C941.49 1088.53 941.41 1096.5 941.4 1104.38C941.4 1105.97 941.72 1107.56 942.36 1109.14C942.513 1109.51 942.783 1109.72 943.17 1109.78L951.51 1111.06C951.749 1111.1 951.97 1111.21 952.142 1111.38C952.314 1111.55 952.429 1111.76 952.47 1112L952.64 1112.98C952.787 1113.83 952.43 1114.25 951.57 1114.23C949.177 1114.18 946.916 1114.01 944.79 1113.74C940.83 1113.23 936.16 1113.34 930.78 1114.05C930.524 1114.09 930.263 1114.07 930.02 1113.98C928.233 1113.37 928.283 1112.49 930.17 1111.33C930.263 1111.28 930.361 1111.24 930.46 1111.22L935.32 1110.47C936.06 1110.36 936.735 1109.98 937.224 1109.41C937.713 1108.85 937.985 1108.12 937.99 1107.37C938.07 1094.96 938.083 1082.52 938.03 1070.05C938.02 1067.32 937.74 1064.49 937.35 1061.8C936.88 1058.57 931.37 1058.04 928.98 1057.97C928.789 1057.96 928.607 1057.89 928.473 1057.75C928.339 1057.61 928.262 1057.43 928.26 1057.24V1055.99C928.253 1055.3 928.593 1054.97 929.28 1054.98C932.22 1055.04 935.267 1054.85 938.42 1054.42C940.5 1054.13 942.32 1054.68 943.76 1056.24C950.47 1063.46 956.97 1070.97 963.72 1078.22C970.666 1085.69 977.597 1093.32 984.51 1101.13C984.843 1101.51 985.26 1101.63 985.76 1101.49Z"
            fill="black" />
        <path
            d="M334.05 1081.23C334.457 1081.41 334.873 1081.5 335.3 1081.51C341.233 1081.57 347.273 1081.58 353.42 1081.55C355.25 1081.54 357.12 1081.19 357.54 1079.02C357.867 1077.33 358.023 1075.77 358.01 1074.36C358.003 1073.64 358.343 1073.17 359.03 1072.96L359.95 1072.67C360.897 1072.38 361.34 1072.72 361.28 1073.71C361.16 1075.42 361.4 1077.16 361.04 1078.84C360.687 1080.44 360.607 1082.02 360.8 1083.58C361.207 1086.92 361.35 1090.52 361.23 1094.39C361.227 1094.47 361.203 1094.54 361.162 1094.6C361.122 1094.67 361.065 1094.72 360.998 1094.75C360.932 1094.78 360.858 1094.8 360.784 1094.79C360.711 1094.79 360.64 1094.76 360.58 1094.72C358.29 1093.12 358 1088.8 356.76 1086.38C356.56 1085.99 356.263 1085.71 355.87 1085.54C354.263 1084.81 352.613 1084.42 350.92 1084.37C345.507 1084.2 340.033 1084.2 334.5 1084.37C334.305 1084.38 334.119 1084.46 333.983 1084.6C333.846 1084.74 333.77 1084.92 333.77 1085.12C333.73 1092.45 333.733 1099.64 333.78 1106.68C333.81 1110.21 336.94 1110.71 339.67 1110.71C344.503 1110.72 349.46 1110.7 354.54 1110.64C358.247 1110.6 361.57 1109.63 364.51 1107.73C367.3 1105.93 369.18 1101.04 370.74 1097.95C371.06 1097.31 371.557 1097.03 372.23 1097.11C372.353 1097.13 372.47 1097.17 372.576 1097.23C372.682 1097.29 372.774 1097.38 372.845 1097.48C372.917 1097.58 372.967 1097.69 372.992 1097.81C373.016 1097.93 373.016 1098.06 372.99 1098.18C372.33 1101.27 371.55 1104.43 371.44 1107.6C371.387 1109.04 371.197 1110.51 370.87 1112.01C370.812 1112.27 370.663 1112.51 370.449 1112.68C370.236 1112.84 369.971 1112.93 369.7 1112.92C357.94 1112.65 347.217 1112.77 337.53 1113.3C332.23 1113.59 325.393 1113.61 317.02 1113.36C316.854 1113.35 316.696 1113.29 316.58 1113.17C316.465 1113.05 316.4 1112.89 316.4 1112.72C316.4 1112.48 316.477 1112.25 316.63 1112.04C317.063 1111.43 317.653 1111.08 318.4 1111.01L323.47 1110.52C324.09 1110.46 324.666 1110.17 325.085 1109.71C325.505 1109.25 325.738 1108.65 325.74 1108.02C325.8 1097.05 325.82 1086.28 325.8 1075.71C325.79 1070.53 324.82 1065.44 325.46 1060.34C325.508 1059.96 325.429 1059.57 325.234 1059.23C325.039 1058.9 324.739 1058.64 324.38 1058.49C322.407 1057.67 320.273 1057.25 317.98 1057.22C317.207 1057.21 316.633 1056.87 316.26 1056.19C316.1 1055.89 316.183 1055.56 316.51 1055.2C316.592 1055.11 316.692 1055.04 316.804 1054.99C316.916 1054.94 317.037 1054.91 317.16 1054.91L366.27 1054.98C366.367 1054.98 366.463 1055 366.553 1055.04C366.642 1055.08 366.722 1055.14 366.787 1055.21C366.853 1055.28 366.904 1055.37 366.935 1055.46C366.966 1055.55 366.978 1055.65 366.97 1055.75C366.69 1059.09 366.69 1062.77 366.97 1066.8C367.01 1067.33 366.87 1067.78 366.55 1068.15C366.449 1068.27 366.321 1068.35 366.177 1068.41C366.033 1068.46 365.877 1068.48 365.725 1068.46C365.573 1068.43 365.429 1068.38 365.306 1068.28C365.182 1068.19 365.084 1068.07 365.02 1067.93L361.43 1060.17C361.156 1059.58 360.733 1059.08 360.203 1058.71C359.673 1058.33 359.055 1058.11 358.41 1058.05C355 1057.74 351.68 1057.46 348.18 1057.6C344.293 1057.76 340.253 1057.92 336.06 1058.09C335.443 1058.12 334.859 1058.38 334.431 1058.82C334.002 1059.27 333.762 1059.86 333.76 1060.48L333.7 1080.69C333.7 1080.8 333.733 1080.91 333.795 1081.01C333.857 1081.11 333.946 1081.18 334.05 1081.23Z"
            fill="black" />
        <path
            d="M436.2 1058.26C434.593 1058.61 433.79 1059.6 433.79 1061.24L433.76 1108.6C433.76 1108.98 433.898 1109.35 434.148 1109.64C434.397 1109.93 434.742 1110.12 435.12 1110.18C437.88 1110.6 440.733 1110.64 443.68 1110.31C446.8 1109.95 449.9 1110.01 452.99 1109.8C458.88 1109.41 463.71 1103.05 465.72 1098C465.824 1097.73 466.017 1097.51 466.266 1097.37C466.516 1097.23 466.807 1097.18 467.09 1097.23L467.45 1097.29C467.546 1097.31 467.637 1097.34 467.719 1097.39C467.801 1097.44 467.872 1097.51 467.926 1097.59C467.98 1097.67 468.018 1097.76 468.035 1097.86C468.053 1097.95 468.051 1098.05 468.03 1098.14C466.93 1102.91 466.123 1107.85 465.61 1112.96C465.563 1113.41 465.317 1113.6 464.87 1113.55C462.36 1113.25 459.86 1112.77 457.33 1112.77C447.203 1112.8 437.08 1112.84 426.96 1112.87C422.81 1112.89 419.16 1113.8 415.04 1113.38C414.58 1113.33 414.41 1113.09 414.53 1112.64C414.75 1111.82 415.277 1111.34 416.11 1111.2C418.57 1110.78 421.023 1110.28 423.47 1109.71C424.016 1109.58 424.5 1109.26 424.835 1108.81C425.169 1108.36 425.334 1107.8 425.3 1107.24C425.02 1102.54 425.75 1097.77 425.78 1093.11C425.86 1082.43 425.86 1071.64 425.78 1060.74C425.774 1060.14 425.56 1059.55 425.174 1059.09C424.787 1058.63 424.252 1058.31 423.66 1058.2C421.36 1057.77 419.093 1057.24 416.86 1056.61C416.34 1056.46 416.093 1056.13 416.12 1055.6C416.128 1055.43 416.2 1055.27 416.321 1055.15C416.442 1055.04 416.603 1054.97 416.77 1054.97L443.84 1054.92C444.46 1054.92 444.757 1055.23 444.73 1055.84L444.71 1056.19C444.677 1056.87 444.317 1057.24 443.63 1057.29C440.663 1057.51 438.187 1057.83 436.2 1058.26Z"
            fill="black" />
        <path
            d="M846.93 1084.97C846.763 1085.3 846.68 1085.65 846.68 1086C846.64 1092.91 846.63 1099.83 846.65 1106.76C846.66 1110.85 848.93 1110.49 852.22 1110.61C859.113 1110.86 865.166 1110.75 870.38 1110.26C873.906 1109.93 876.747 1108.52 878.9 1106.03C880.76 1103.88 881.49 1101.18 882.94 1098.75C883.533 1097.75 884.333 1097.23 885.34 1097.18C885.773 1097.16 885.933 1097.36 885.82 1097.78C884.7 1101.95 884.053 1106.43 883.88 1111.23C883.864 1111.68 883.672 1112.11 883.345 1112.42C883.017 1112.73 882.581 1112.9 882.13 1112.89C876.71 1112.79 871.35 1112.76 866.05 1112.8C864.283 1112.81 858.92 1112.99 849.96 1113.33C843.36 1113.58 836.75 1113.6 830.13 1113.4C829.583 1113.38 829.297 1113.1 829.27 1112.55C829.263 1112.4 829.273 1112.26 829.3 1112.12C829.433 1111.39 829.863 1111 830.59 1110.95L837.08 1110.47C837.372 1110.45 837.646 1110.32 837.846 1110.1C838.046 1109.89 838.158 1109.61 838.16 1109.32C838.22 1104.94 837.96 1100.55 838.53 1096.22C838.83 1093.95 838.19 1091.75 838.2 1089.47C838.206 1080.32 838.2 1070.64 838.18 1060.44C838.173 1058.95 837.396 1058.08 835.85 1057.85C833.75 1057.53 831.847 1057.3 830.14 1057.16C829.56 1057.11 829.263 1056.79 829.25 1056.21L829.24 1055.74C829.238 1055.64 829.257 1055.53 829.296 1055.44C829.334 1055.34 829.39 1055.26 829.462 1055.18C829.533 1055.11 829.619 1055.05 829.713 1055.01C829.807 1054.97 829.908 1054.95 830.01 1054.95L878.7 1054.94C878.911 1054.94 879.12 1054.99 879.309 1055.08C879.497 1055.18 879.661 1055.32 879.786 1055.49C879.91 1055.66 879.993 1055.86 880.027 1056.07C880.061 1056.27 880.045 1056.49 879.98 1056.69C878.966 1059.88 878.917 1063.1 879.83 1066.36C880.043 1067.13 879.87 1067.79 879.31 1068.34C879.236 1068.41 879.146 1068.45 879.04 1068.44C878.173 1068.37 877.603 1067.95 877.33 1067.19C876.363 1064.5 875.166 1061.96 873.74 1059.56C872.17 1056.91 869.23 1058.19 866.77 1057.76C865.03 1057.45 863.35 1057.4 861.73 1057.59C857.08 1058.14 852.66 1057.62 848 1058.34C847.615 1058.4 847.264 1058.6 847.011 1058.9C846.758 1059.19 846.62 1059.57 846.62 1059.96L846.64 1080.77C846.64 1080.96 846.714 1081.14 846.847 1081.27C846.98 1081.4 847.161 1081.48 847.35 1081.48C854.216 1081.57 860.86 1081.55 867.28 1081.44C869.033 1081.41 870.03 1080.45 870.27 1078.57C870.477 1077 870.743 1075.45 871.07 1073.9C871.152 1073.5 871.352 1073.14 871.643 1072.86C871.934 1072.58 872.302 1072.4 872.7 1072.33C872.8 1072.32 872.9 1072.32 873 1072.33C873.693 1072.44 874 1072.84 873.92 1073.53C873.293 1079.1 873.316 1084.88 873.99 1090.88C874.11 1091.95 874.1 1093.01 873.96 1094.07C873.887 1094.61 873.577 1094.87 873.03 1094.84C872.823 1094.83 872.646 1094.75 872.5 1094.61C872.373 1094.49 872.283 1094.35 872.23 1094.18C871.483 1091.73 870.683 1089.25 869.83 1086.76C869.714 1086.43 869.526 1086.12 869.279 1085.87C869.032 1085.61 868.732 1085.42 868.4 1085.29C866.82 1084.7 865.2 1084.39 863.54 1084.36C858.626 1084.26 853.44 1084.24 847.98 1084.3C847.761 1084.3 847.546 1084.37 847.361 1084.49C847.176 1084.6 847.026 1084.77 846.93 1084.97Z"
            fill="black" />
        <path
            d="M131.5 1080.54C131.5 1080.78 131.592 1081.01 131.758 1081.18C131.924 1081.36 132.15 1081.46 132.39 1081.47C139.357 1081.76 146.357 1081.71 153.39 1081.33C153.708 1081.31 154.013 1081.2 154.265 1081C154.516 1080.81 154.703 1080.54 154.8 1080.24C155.433 1078.26 155.773 1076.26 155.82 1074.23C155.833 1073.46 156.217 1073.01 156.97 1072.86L158.08 1072.63C158.987 1072.45 159.31 1072.8 159.05 1073.69C158.743 1074.72 158.567 1075.74 158.52 1076.75C158.247 1082.69 158.473 1088.46 159.2 1094.05C159.211 1094.15 159.201 1094.24 159.169 1094.33C159.137 1094.43 159.085 1094.51 159.017 1094.58C158.949 1094.65 158.866 1094.7 158.774 1094.73C158.683 1094.76 158.586 1094.77 158.49 1094.76C157.71 1094.66 157.17 1094.2 156.87 1093.37C156.13 1091.28 155.5 1089.2 154.98 1087.15C154.881 1086.76 154.693 1086.4 154.431 1086.1C154.169 1085.8 153.84 1085.56 153.47 1085.41C151.77 1084.7 149.96 1084.34 148.04 1084.31C143.213 1084.26 138.33 1084.26 133.39 1084.31C132.13 1084.32 131.5 1084.96 131.5 1086.23L131.51 1106.69C131.51 1109.29 132.807 1110.61 135.4 1110.65C141.093 1110.75 146.82 1110.73 152.58 1110.6C154.78 1110.55 156.937 1110.11 159.05 1109.29C164.32 1107.23 165.61 1103.3 167.83 1098.81C168.27 1097.92 168.91 1097.32 169.75 1097C169.859 1096.96 169.976 1096.95 170.091 1096.97C170.206 1096.98 170.314 1097.03 170.405 1097.1C170.496 1097.18 170.566 1097.27 170.609 1097.38C170.652 1097.49 170.666 1097.6 170.65 1097.72C170.27 1100.47 169.3 1103.05 169.15 1105.83C169.03 1108.01 168.77 1110.14 168.37 1112.22C168.33 1112.42 168.219 1112.6 168.058 1112.73C167.897 1112.86 167.696 1112.93 167.49 1112.92C162.01 1112.77 156.467 1112.75 150.86 1112.84C146.173 1112.91 140.617 1113.08 134.19 1113.35C128.137 1113.6 121.68 1113.62 114.82 1113.42C114.693 1113.42 114.571 1113.37 114.475 1113.29C114.378 1113.2 114.313 1113.09 114.29 1112.96C114.09 1111.91 114.52 1111.3 115.58 1111.13C117.5 1110.82 119.493 1110.59 121.56 1110.44C121.964 1110.41 122.341 1110.22 122.615 1109.93C122.889 1109.63 123.041 1109.24 123.04 1108.84C123.007 1094.29 123.007 1078.24 123.04 1060.71C123.05 1057.33 117.96 1057.2 115.66 1057.15C114.907 1057.13 114.38 1056.74 114.08 1055.99C113.927 1055.59 114.22 1055.25 114.96 1054.97C114.98 1054.96 115 1054.96 115.02 1054.96H163.03C164.45 1054.96 164.987 1055.65 164.64 1057.03C163.813 1060.34 163.873 1063.72 164.82 1067.19C164.889 1067.45 164.859 1067.72 164.737 1067.95C164.615 1068.19 164.409 1068.37 164.16 1068.46C164.073 1068.49 163.983 1068.51 163.89 1068.51C163.117 1068.5 162.603 1068.13 162.35 1067.4C161.483 1064.89 160.283 1062.4 158.75 1059.93C157.9 1058.56 156.39 1057.53 154.71 1057.79C152.2 1058.18 150.05 1057.41 147.52 1057.55C142.807 1057.82 138.247 1057.98 133.84 1058.05C133.218 1058.06 132.625 1058.31 132.187 1058.75C131.749 1059.2 131.503 1059.8 131.5 1060.42V1080.54Z"
            fill="black" />
        <path
            d="M1566.01 1108.52C1565.7 1111.34 1567.61 1113.87 1570.26 1114.16C1572.92 1114.45 1575.32 1112.39 1575.63 1109.56C1575.94 1106.74 1574.03 1104.21 1571.38 1103.92C1568.72 1103.63 1566.32 1105.69 1566.01 1108.52Z"
            fill="black" />
    </g>
    <defs>
        <clipPath id="clip0_166_4">
            <rect width="1582" height="1116" fill="white" />
        </clipPath>
    </defs>
</svg>